<svg xmlns="http://www.w3.org/2000/svg" viewBox="0 0 1020 932"><defs><style>.cls-1{isolation:isolate;}.cls-14,.cls-2{fill:#231f20;}.cls-2{opacity:0.2;}.cls-14,.cls-2,.cls-9{mix-blend-mode:multiply;}.cls-3{fill:#fff;}.cls-4{fill:#e83d32;}.cls-5{fill:#414142;}.cls-6{fill:#e93e32;}.cls-7{fill:#e2b787;}.cls-8{fill:#bbbdbf;}.cls-9{fill:#010101;}.cls-14,.cls-9{opacity:0.1;}.cls-10{fill:#fbf7e0;}.cls-11{fill:#5e5f5f;}.cls-12{fill:#a38974;}.cls-13{fill:#404141;}.cls-15{fill:#a87d50;}.cls-16{fill:#c18b99;}.cls-17{fill:#f3ebd4;}.cls-18{fill:#6e6f71;}</style></defs><title>Artboard 57</title><g class="cls-1"><g id="Layer_2" data-name="Layer 2"><ellipse class="cls-2" cx="453.2" cy="914.69" rx="5.2" ry="324.43" transform="translate(-463.27 1364.29) rotate(-89.77)"/><path class="cls-3" d="M1003.08,42.57a10,10,0,0,0-6.58-3.9L843.7,16.78a10.16,10.16,0,0,0-1.43-.1,10,10,0,0,0-9.89,8.58l-29.08,203a17.9,17.9,0,0,0-8.92,6.06c-8,10.13-9.17,23-3.34,36.29,9,20.48,32.81,38.92,52.07,45.66v8.87a9.94,9.94,0,0,0,2.09,6.11C838.32,359.89,822,405.55,785,431.58a108.3,108.3,0,0,1-10.91,6.73c14-12.9,23.49-27.15,28.25-42.52a78.83,78.83,0,0,0,2.78-12.32q.29-2.06.53-4.1v-.09c4.6-39.7-5.67-74.64-30.55-103.93l-.44-.49q-1.49-1.74-3-3.45c-.44-.49-.9-1-1.35-1.44s-.79-.86-1.19-1.28l-.79-.8q-.95-1-1.91-1.93l-1.3-1.27q-2.51-2.44-5.13-4.78l0,0q-1.5-1.34-3-2.63l-.28-.23c-20.58-17.4-45.42-30-71.18-38.75l-.27-.09q-2.38-.8-4.77-1.56l-2.88-.9-1.39-.43c-4.32-1.3-8.48-2.45-12.43-3.45l-.44-.08a313.4,313.4,0,0,0-30.79-6.11,203.88,203.88,0,0,0,24.64-8.85A10,10,0,0,0,663,186l-3.92-24.2a10,10,0,0,0-13.8-7.6c-13.62,5.82-24.71,8.65-33.92,8.65a36.63,36.63,0,0,1-7.89-.81,72.11,72.11,0,0,0-7.08-7.93,116,116,0,0,0-17.77-14c-.64-1.19-1.28-2.42-1.91-3.71a10,10,0,0,0-12.95-4.79c-20.32-10.26-41.71-16.22-55.61-19.35a279.92,279.92,0,0,0-28.4-4.88q1.35-4.78,2.58-9.84a10,10,0,0,0-5.52-11.44L440.53,69.3A10,10,0,0,0,426.62,76c-3,12.34-6.71,22.68-11.16,31.21-56.18,5.57-108.21,25.64-149,57.91a234.6,234.6,0,0,0-53.32,59,123,123,0,0,0-9.56-17.28c-2.55-4-25.81-38.7-69.22-38.7-25.54,0-52.51,12.17-80.16,36.18C22.53,231.81,10,257.34,16.92,280.19c6.13,20.22,27,36.39,62,48A284.53,284.53,0,0,0,127,339.49c.79.13,18.27,3.12,25.13,15.64,4.77,8.7,3.69,20.8-3.21,36-21.52,47.39-26.54,69-19.22,82.46,3.69,6.79,10.27,10.94,19.58,12.34a35.82,35.82,0,0,0,5.25.37h0a58,58,0,0,0,15.67-2.45c-13.55,9.58-21.63,21.07-24.09,34.32-4.82,25.9,12.7,52.51,53.46,81.09l.24,59.71a10,10,0,0,0,7.7,9.69c.82.19,82.68,19.33,185.75,26.56q12.13.85,24,1.43l1.49,183.76a24,24,0,0,1-15.23,4.9h-1.23a10,10,0,0,0-9.87,8.39l-.64,3.9a10,10,0,0,0,8.81,11.55c.3,0,3,.31,6.95.31a62.71,62.71,0,0,0,19-2.64,10,10,0,0,0,6.51,2.41q.42,0,.83,0l8.15-.68a10,10,0,0,0,9.08-11.26l-1.55-11.92a10.07,10.07,0,0,0,.07-1.08L451,714.95l40.62.84-1.8,167.43-2.94,15.92a10,10,0,0,0,8.59,11.74l8.11,1a10,10,0,0,0,7.32-2c5.65,2.23,13.17,3.77,23.14,3.77,1.51,0,2.46,0,2.63-.05A10,10,0,0,0,546,902.56l-.43-3.92a10,10,0,0,0-9.66-8.9c-9.11-.25-14.39-4.2-16.8-6.63l5.31-186.75q18.28-1.12,35.65-3c63-6.91,116.59-21.61,159.22-43.71a10,10,0,0,0,5.32-10.16l-19.82-153q5,.24,9.8.25c34.31,0,64.66-9.12,90.21-27.12C834,439,857,406.33,871.21,365a274.83,274.83,0,0,0,8.41-29.83h1.17a10,10,0,0,0,10-10V317.1c1.63-.61,3.4-1.17,5.23-1.74a67.19,67.19,0,0,0,11.31-4.3,39.43,39.43,0,0,0,17.56-17.51l34.39,4.93a10.17,10.17,0,0,0,1.43.1A10,10,0,0,0,970.6,290L1005,50A10,10,0,0,0,1003.08,42.57ZM395,675.27a1317.85,1317.85,0,0,1-175.2-24.4l-.17-42.6a9.94,9.94,0,0,0,5.53-4.15l7.75-12a10,10,0,0,0-3-13.82c-3.75-2.41-7.21-4.73-10.42-7l-.29-72.64c2.49-.72,4.91-1.32,7.2-1.8A10,10,0,0,0,234.17,485l-2.91-14a10,10,0,0,0-11.81-7.77l-.38.08,0-11.68a70.15,70.15,0,0,0,8.39-13c26.18,21.23,61.94,38.27,106.7,50.78q9.64,2.69,19.71,5.06l-92.5,8.12a10,10,0,0,0-9.09,10.84l5.95,67.7a10,10,0,0,0,10,9.13c.29,0,.59,0,.89,0L390.5,579.53a10,10,0,0,0,9.09-10.84l-5.26-59.94L479,618.47l24.12,33.19-76.25.81A10,10,0,0,0,417,662.56l.11,14Q406.18,676,395,675.27Zm163.08-1.82q-9.38,1-19.06,1.82l29.08-65.17,51.17-109a495.55,495.55,0,0,0,65.25-15.59L703.89,635C664.51,654.22,615.5,667.14,558.09,673.45Zm340-380.15a51.87,51.87,0,0,1-8.05,3c-1.71.53-3.49,1.09-5.3,1.73a10,10,0,0,0-4-.83H867.4l-6.74-.57c-.29,0-.57,0-.85,0a9.89,9.89,0,0,0-3.4.61h-3.3a10,10,0,0,0-3,.47c-8.67-2.92-20.18-10.05-29.13-19l13.91,2a10,10,0,0,0,9.58,1.37l58.1,8.32A24.29,24.29,0,0,1,898.13,293.3Z"/><rect class="cls-4" x="780.26" y="80.45" width="242.46" height="154.36" transform="translate(617.64 1027.66) rotate(-81.85)"/><path class="cls-3" d="M959,172.22l-1.91-81.8a12.08,12.08,0,0,0-12.3-11.77L931,79c1.44.58,2.9,1.13,4.3,1.79A73.43,73.43,0,0,1,951,90.33l-11.74,18.81q-7.07-9.08-22.43-12.27c-9.14-1.89-14.49.77-16,8.09-.59,2.86.4,5.74,2.93,8.65S912,121,921.08,127a60.75,60.75,0,0,1,14.43,12.41,35.23,35.23,0,0,1,4,6c3.17,6.44,4,13.56,2.34,21.42-1.57,7.6-5,13.63-10.29,18l15.65-.35A12,12,0,0,0,959,172.22Z"/><path class="cls-3" d="M911.79,151.48c-2.52-3.35-7.89-7.81-16-13.36A75.1,75.1,0,0,1,883.66,128c-8.76-9.3-12.09-19.13-9.93-29.67,1.44-7,4.6-12.46,9.39-16.4a32,32,0,0,1,2.7-2L863,80.55a12,12,0,0,0-11.77,12.29l1.94,81.78a12,12,0,0,0,12.28,11.72l9.4-.2-.7-.3c-4.2-2.12-9.4-5.8-15.77-11.05L872,155.85a42.48,42.48,0,0,0,24.61,14.82c10.26,2.12,16.09-.45,17.61-7.72A13.8,13.8,0,0,0,911.79,151.48Z"/><path class="cls-3" d="M964.3,239.2l-5.63-.81.33-2.34,5.63.81Zm-19.66-2.82-14-2,.34-2.34,14,2Zm-28.07-4-14-2,.34-2.34,14,2Zm-28.07-4-14-2,.33-2.34,14,2Zm-28.07-4-14-2,.34-2.34,14,2Zm-28.07-4-14-2,.34-2.34,14,2Z"/><path class="cls-5" d="M714.61,476.72q-27.86,0-59.62-8.4l3.67-13.85c53.59,14.2,98,9.24,132.08-14.71,60.63-42.65,69-132.3,69.08-133.2l14.28,1.21c-.08,1-2.16,24.53-12.33,54-13.56,39.31-35.25,70.32-62.71,89.66C775.14,468.28,746.87,476.72,714.61,476.72Z"/><path class="cls-5" d="M216.76,598.71C171.43,569.56,151.55,543.8,156,520c2.76-14.87,14.91-27.35,36.09-37.08a152,152,0,0,1,29.4-9.87l2.9,14-1.45-7,1.46,7c-13.81,2.88-50.48,14.87-54.31,35.56-2.19,11.84,5.47,32.56,54.45,64.05Z"/><polygon class="cls-5" points="427.03 662.48 515.44 661.53 509.04 886.48 499.74 887.16 501.68 706 441.04 704.74 439.67 884.14 428.84 886.15 427.03 662.48"/><path class="cls-5" d="M509,886.48s7.55,12.73,26.63,13.26l.43,3.92s-24.51,1.3-31.55-10.65l.23,9-8.11-1,3-16.15Z"/><path class="cls-5" d="M429.68,883.46s-8.27,12.36-27.35,11.82l-.64,3.9s24.41,2.61,32.1-8.9l-.72,8.92,8.15-.68-2.11-16.2Z"/><path class="cls-5" d="M208.84,405.36l1,253.54s322.78,76.24,504.87-18.14l-23.32-180L200.29,405.39"/><polygon class="cls-3" points="620.12 475.79 529.9 667.96 394.19 492.22 620.12 475.79"/><path class="cls-6" d="M561.15,495.43s-34.87,94-86.8,4.67Z"/><path class="cls-7" d="M506,122c31.17,7,63.68,20,83.47,39.25,16.43,16,17.8,31.85,5.1,51.15,97,2.14,216.9,54.55,200.67,169.69-23,163.44-625.86,168-607.35-49.55,12-141.53,137-223,275.13-216.55A254.17,254.17,0,0,1,506,122Z"/><path class="cls-8" d="M661.2,221.51c-16.39,13-30.93,32.34-47.45,47.39-11.14,19-28.29,31.45-50.84,39.48-19.85,7.08-40.4,13.45-60.77,18.79-30.56,8-61.92,14.72-93.41,17.67-24.53,2.29-53,5.08-76.84-2.59-47.19-15.17-75.44-50.56-83.71-99a166.48,166.48,0,0,1-1-46.69c-32.87,35.21-54.62,81.05-59.3,136-18.51,217.52,584.31,213,607.35,49.55C807.8,292.68,738.31,241.1,661.2,221.51Z"/><path class="cls-9" d="M594,222.87c-2.71,14.11-17.22,23.18-32.39,20.26S536.31,226.41,539,212.3s16.48-19.35,31.66-16.43S596.7,208.76,594,222.87Z"/><path class="cls-10" d="M598.19,220c-2.71,14.11-17.22,23.18-32.39,20.26s-25.28-16.72-22.57-30.83S559.71,190.1,574.89,193,600.9,205.91,598.19,220Z"/><path class="cls-9" d="M544.62,223.37a28.45,28.45,0,0,0,21.17,16.92c15.18,2.92,29.68-6.15,32.39-20.26a21.92,21.92,0,0,0,.37-5.54C579.76,241.69,554,229.27,544.62,223.37Z"/><circle class="cls-11" cx="570.68" cy="210.07" r="6.46" transform="translate(256.6 730.8) rotate(-79.11)"/><path class="cls-7" d="M195.23,212.34s-46.75-76.68-134.49-.51C-48.61,306.92,128.4,329.59,128.4,329.59s55.92,7.9,29.66,65.65S129.83,472.86,150.8,476s66.9-21.94,71.81-54.75C243.63,279.85,195.23,212.34,195.23,212.34Z"/><path class="cls-12" d="M213.21,323.15S140,163.32,128.84,301.72C128.84,301.72,151.87,221.59,213.21,323.15Z"/><path class="cls-12" d="M213.75,323.52s-54.49-76.11-39.37,32.1C174.38,355.61,172.88,284.59,213.75,323.52Z"/><path class="cls-13" d="M567.73,140.76c16.38,33.56,40.32,40.2,81.48,22.61l3.92,24.2C598,211.13,566,202.24,544.06,157.31Z"/><path class="cls-14" d="M496.74,397.7s67.74-5.62,70.45-4.95,4.24-1.11,7.52,0,5,18.52,7,18.51c.94,0-.16,5.83-1.63,12.15a42.05,42.05,0,0,0-2.75,11.08c-.72,2.74-1.23,4.61-1.23,4.61l1-.18c0,.58,0,1.15,0,1.73-96.41,18.75-45.27-23.7-45.27-23.7C500.79,423.35,496.74,397.7,496.74,397.7Z"/><path class="cls-13" d="M436.34,78.38C421.76,138.19,390.54,158.32,330,146.9c.12,16,.18,24,.3,40,81,15.29,122.77-11.66,142.27-91.72Z"/><path class="cls-15" d="M431.27,290c-17.68,0-37.17-9.69-58.13-29a1.45,1.45,0,0,1,2-2.13c25.3,23.25,48.2,32.18,68,26.56,33.16-9.39,46.91-56.77,47-57.25A1.45,1.45,0,0,1,493,229a124.83,124.83,0,0,1-11.29,25.81c-10.29,17.79-23.35,29.36-37.75,33.44A46.18,46.18,0,0,1,431.27,290Z"/><path class="cls-11" d="M509.25,475.16c-5.74,0-11.65-.08-17.69-.27-47.7-1.49-112.83-10-152.27-42.31-22.21-18.18-34.3-42.11-35.94-71.14l3.22-.18c1.58,28.09,13.28,51.24,34.75,68.82,38.72,31.69,103.09,40.11,150.27,41.58a624.62,624.62,0,0,0,90.69-4c-4.65-4.81-6.6-12.16-5.65-21.53a62,62,0,0,1,3.65-15.25l3,1.21c-.1.26-10.22,26,3.76,35.36l3.48,2.34-4.15.6A608.25,608.25,0,0,1,509.25,475.16Z"/><path class="cls-16" d="M464.56,170.5s274.78,69.36,131.67,220.68c0,0,87-47,75.93,8.38s-75.89.3-75.89.3,34.08,44.33-40.21,41.37,13.25-43.44,13.25-43.44-89.21,28.55-76.45-11.63,76.39-2.47,76.39-2.47L476.19,211.38"/><path class="cls-9" d="M486.9,221.88c-2.71,14.11-17.22,23.18-32.39,20.26s-25.28-16.72-22.57-30.83,16.48-19.35,31.66-16.43S489.61,207.77,486.9,221.88Z"/><path class="cls-10" d="M491.1,219c-2.71,14.11-17.22,23.18-32.39,20.26s-25.28-16.72-22.57-30.83,16.48-19.35,31.66-16.43S493.81,204.92,491.1,219Z"/><path class="cls-9" d="M437.53,222.38A28.45,28.45,0,0,0,458.7,239.3c15.18,2.92,29.68-6.15,32.39-20.26a21.92,21.92,0,0,0,.37-5.54C472.67,240.7,446.9,228.28,437.53,222.38Z"/><circle class="cls-11" cx="452.94" cy="217" r="6.46" transform="translate(154.3 620.8) rotate(-79.11)"/><path class="cls-3" d="M596.23,391.18c99.89-105.62-3.79-171.3-75.54-201.34l-2.36,4s190.38,65.95,74.37,199.7c0,0,71.61-33,80.31-.73C675.59,348.37,596.23,391.18,596.23,391.18Z"/><path class="cls-11" d="M325.91,361.75S288,320,283.65,365.49C283.65,365.49,290.78,333.38,325.91,361.75Z"/><polyline class="cls-6" points="532.59 528.32 533.39 530.68 559.02 605.92 529.83 671.34 487.04 612.46 517.17 528.02"/><path class="cls-7" d="M855.5,309c-23.89-1.83-73.85-42.3-53.26-68.44,9-11.4,45.24,9.57,38.66,32.14,9.37-5,16.85-13.57,24.49-20.71,8.78-8.21,17.37-16.58,27.78-22.74,6-3.53,14.2-5,19.59.8,13,14-6.87,24.93-18.07,29.45-3.69,1.49-7.48,2.7-11.27,3.88,4.75-1,9.76.17,14.48.78a37.82,37.82,0,0,1,10.5,2.62c6,2.64,10.37,8.07,9.7,14.84-.92,9.21-7.39,16.43-15.34,20.55-7.37,3.82-16.85,4.53-23.37,9.84"/><rect class="cls-17" x="853.11" y="307.17" width="27.69" height="18.03"/><rect class="cls-8" x="264.94" y="507.07" width="121.94" height="67.96" transform="translate(-46.08 30.59) rotate(-5.02)"/><path class="cls-18" d="M298.67,546.52c3.47,1.43,5.46,5,5.32,9.76-.25,9.82-10.36,11.51-18,11.5-.86-11.39-2.12-22.5-3.41-33.24l-2.23.75c-1.12-4.86-1.9-10.5-1.9-10.5,14.78-4,22.45-1.54,24.62,7.2C304.79,539.22,302.28,543.91,298.67,546.52Zm-8.41-13.21c.18,3.64.45,7.52.78,11.28,2.44-.77,4.69-3,3.89-7.28C294.49,534.61,292.71,533.46,290.26,533.31Zm1.32,17.37c.37,4.25.77,7.93,1,10.2,2.26-.45,4-2.46,3.61-5.71C295.88,552.09,294.36,550.62,291.58,550.67Z"/><path class="cls-18" d="M319.92,563.75c-4.87.92-10.85-3.64-13.28-16.19-3.1-16.22,1.34-26.77,8.55-27.28s12.48,8.7,13.4,21.57C329.5,553.79,326,562.66,319.92,563.75Zm-3.47-31.62c-1.71.34-3,6.22-2.45,12.61s3.17,12.31,5.08,11.83,2.83-5.08,2.35-12.17C320.85,537,318.49,531.63,316.44,532.12Z"/><path class="cls-18" d="M342.26,562.59c-5.62.37-11-4.93-11.88-13.83a34.09,34.09,0,0,1,7.68-3c.32,6,1.82,9.57,3.48,9.49,1.25,0,2.4-2,2.08-4.89-.91-8-14.13-8.49-14.3-20.75-.12-6.93,4.46-11.18,8.24-11.82,4.75-.73,9.82,3,11.18,13.77,0,0-4,1.65-7.37,2.63-.19-3.76-1.17-8.58-3.18-8.4-.9.08-2,2.34-1.49,4.47,1.76,8.09,14.63,9.38,15.16,20.18C352.13,556.58,347.87,562.16,342.26,562.59Z"/><path class="cls-18" d="M364.54,560.63c-5.62.37-11-4.93-11.88-13.83a34.12,34.12,0,0,1,7.68-3c.32,6,1.82,9.57,3.48,9.49,1.25,0,2.4-2,2.08-4.89-.91-8-14.13-8.49-14.3-20.75-.12-6.93,4.46-11.18,8.24-11.82,4.75-.73,9.82,3,11.18,13.77,0,0-4,1.65-7.37,2.63-.19-3.76-1.17-8.58-3.18-8.4-.9.08-2,2.34-1.49,4.47,1.76,8.09,14.63,9.38,15.16,20.18C374.41,554.62,370.15,560.2,364.54,560.63Z"/></g></g></svg>