<svg viewBox="0 0 1920 1080" xmlns="http://www.w3.org/2000/svg"><g fill="#231f20" opacity=".2"><path d="m113.58 630.9v128.84h-113.58v320.9h402.56v-449.74zm-73.65 429.41a22.51 22.51 0 0 1 -22.51-22.51v-235.22a22.51 22.51 0 0 1 22.51-22.51h73.65v29.23a50.31 50.31 0 1 0 -9.76 99.7 49.85 49.85 0 0 0 9.76-.94v22.94a49.73 49.73 0 0 0 -9.52-1 50.32 50.32 0 1 0 9.52 99.69v30.6zm73.65-223.66a24 24 0 0 0 -9.58-2h-.06a24 24 0 0 0 -.06 48.09h.06a23.85 23.85 0 0 0 9.64-2v17.16a40.35 40.35 0 1 1 0-78.35v17.15zm0 4.3v35.43a20 20 0 0 1 -9.64 2.47 20.18 20.18 0 0 1 0-40.35 20 20 0 0 1 9.64 2.5zm0 117.37a23.78 23.78 0 0 0 -9.58-2h-.06a24 24 0 0 0 -.06 48.08h.06a23.86 23.86 0 0 0 9.64-2v17.15a40.35 40.35 0 1 1 0-78.35v17.16zm0 4.3v35.44a20 20 0 0 1 -9.64 2.45 20.17 20.17 0 0 1 0-40.34 19.93 19.93 0 0 1 9.64 2.45zm264.56 58a31.54 31.54 0 0 1 -31.55 31.54h-177a31.55 31.55 0 0 1 -31.59-31.55v-329.68a31.55 31.55 0 0 1 31.55-31.54h177a31.54 31.54 0 0 1 31.55 31.54z"/><path d="m259.42 869.55a70.52 70.52 0 1 0 70.35 70.69 70.51 70.51 0 0 0 -70.35-70.69zm-.3 127.06a56.55 56.55 0 1 1 56.68-56.41 56.54 56.54 0 0 1 -56.68 56.41z"/><path d="m259.34 906.37h-.09a33.7 33.7 0 0 0 -.08 67.39h.09a33.7 33.7 0 0 0 .08-67.39zm19.86 53.74a28.1 28.1 0 0 1 -19.94 8.23h-.07a28.27 28.27 0 0 1 .06-56.54h.07a28.27 28.27 0 0 1 19.88 48.31z"/><path d="m259.42 699a70.52 70.52 0 1 0 70.35 70.68 70.51 70.51 0 0 0 -70.35-70.68zm-.3 127.06a56.55 56.55 0 1 1 56.68-56.41 56.54 56.54 0 0 1 -56.68 56.45z"/><path d="m259.34 735.85h-.09a33.7 33.7 0 0 0 -.08 67.4h.09a33.7 33.7 0 0 0 .08-67.4zm-.08 62h-.07a28.27 28.27 0 0 1 .06-56.54h.07a28.27 28.27 0 0 1 -.06 56.54z"/></g><g fill="#231f20" opacity=".2"><path d="m1517.74 630.9v449.74h402.56v-320.9h-113.58v-128.84zm289 429.41v-30.6a50.32 50.32 0 1 0 0-98.74v-22.92a50.31 50.31 0 1 0 9.52-99.69 50.54 50.54 0 0 0 -9.52.94v-29.23h73.65a22.51 22.51 0 0 1 22.51 22.51v235.22a22.51 22.51 0 0 1 -22.51 22.51zm0-237.87v-2.94a40.35 40.35 0 1 1 0 78.35v-17.16a23.85 23.85 0 0 0 9.64 2h.06a24 24 0 0 0 -.06-48.09h-.06a24 24 0 0 0 -9.58 2zm9.59 16.06a20.18 20.18 0 0 1 .05 40.35h-.05a20 20 0 0 1 -9.64-2.47v-35.38a20 20 0 0 1 9.62-2.5zm-9.59 105v-2.3a40.36 40.36 0 1 1 0 78.35v-17.15a23.86 23.86 0 0 0 9.64 2h.06a24 24 0 0 0 -.06-48.08h-.06a23.78 23.78 0 0 0 -9.58 2zm9.59 16.71a20.17 20.17 0 0 1 .05 40.34h-.05a20 20 0 0 1 -9.64-2.45v-35.48a19.93 19.93 0 0 1 9.62-2.45zm-274.17-269.28a31.55 31.55 0 0 1 31.55-31.54h177a31.55 31.55 0 0 1 31.55 31.54v329.68a31.55 31.55 0 0 1 -31.55 31.54h-177a31.55 31.55 0 0 1 -31.55-31.54z"/><path d="m1590.53 940.24a70.52 70.52 0 1 0 70.35-70.69 70.51 70.51 0 0 0 -70.35 70.69zm14 0a56.55 56.55 0 1 1 56.68 56.41 56.54 56.54 0 0 1 -56.71-56.45z"/><path d="m1637.16 916.3a33.69 33.69 0 0 0 23.84 57.46h.09a33.7 33.7 0 0 0 -.08-67.39h-.01a33.47 33.47 0 0 0 -23.84 9.93zm-4.39 23.83a28.27 28.27 0 0 1 28.23-28.33h.07a28.27 28.27 0 0 1 .06 56.54h-.13a28.27 28.27 0 0 1 -28.27-28.21z"/><path d="m1590.53 769.72a70.52 70.52 0 1 0 70.35-70.72 70.51 70.51 0 0 0 -70.35 70.72zm14 0a56.55 56.55 0 1 1 56.68 56.41 56.54 56.54 0 0 1 -56.71-56.44z"/><path d="m1637.16 745.78a33.7 33.7 0 0 0 23.84 57.47h.09a33.7 33.7 0 0 0 -.08-67.4h-.01a33.51 33.51 0 0 0 -23.84 9.93zm-4.39 23.84a28.29 28.29 0 0 1 28.23-28.34h.07a28.27 28.27 0 0 1 .06 56.54h-.13a28.3 28.3 0 0 1 -28.23-28.2z"/></g><circle cx="960.45" cy="543.7" fill="#fff" opacity=".2" r="528.6"/><circle cx="960.45" cy="543.7" fill="#208cc8" r="437.5"/><path d="m1179 131a20.62 20.62 0 0 0 2.27-22.62c-33.55-63-95.58-73.5-120.69-75.09a102.43 102.43 0 0 0 -10.34-.22c-8.66.39-15.91 7.23-17.37 16.37-2 12.44-9.84 35.07-18.15 56.67l-4 10c-8.36-2.58-15.68-4.13-21.56-4.5-16.46-1-23.94 6.68-27.31 13.34-10.8 21.31 12.26 41.58 22.11 50.24 14.68 12.89 35.35 27.2 58.2 40.29 35.42 20.27 69.14 33.61 88 34.81 16.46 1 23.94-6.68 27.31-13.34 10.16-20-9.63-39.16-20.22-48.57l4-6.77c17.84-26.61 37.41-50.26 37.75-50.61z" fill="#fff"/><path d="m1306.09 880.4a18.23 18.23 0 0 0 -8.24-22.5l-12.28-6.76a18.13 18.13 0 0 0 -4.32-1.7 16.92 16.92 0 0 0 -1.68-1.05l-12.26-6.74a18.16 18.16 0 0 0 -4.18-1.67c-.15-.08-.29-.18-.43-.26l-12.26-6.72a18.2 18.2 0 0 0 -6.43-2.1l-11.01-6.11a18.33 18.33 0 0 0 -4.13-1.64 15 15 0 0 0 -1.44-.89l-12.28-6.78a18.15 18.15 0 0 0 -7-2.16l-11-6.07a18.15 18.15 0 0 0 -22.38 3.85 43 43 0 0 0 -15.12-2.87 37.43 37.43 0 0 0 -11.8 1.93l-27.15-111.43c25.28-6.78 45.52-16.63 61.6-27.4a18.24 18.24 0 0 0 26 5.12c29-20.62 46.91-55.37 57.84-87.1a18.13 18.13 0 0 0 13.11-7c21.71-27.88 24.08-62.16 18.9-93.6a18.22 18.22 0 0 0 12-19.12c-4.6-42.48-36.26-84-53.6-103.87 72.57-93.1 75.21-139.54 75.26-144.72a18.22 18.22 0 0 0 -9.79-16.35c-26.66-13.92-57.62-21-92-21-43.23 0-81.4 11.13-100.55 17.87-46.23-50.9-105.47-51.56-108.38-51.56a18.23 18.23 0 0 0 -15.66 9.14q-8.14-2.29-16-4.17c-11.54-26.13-45.73-76.12-139.78-84.23-.53 0-1-.06-1.57-.06a18.23 18.23 0 0 0 -17.24 12.32c-1 2.75-20.77 60.83-14.77 107.54-22.92 10.13-30 21-32.24 27.2a18.23 18.23 0 0 0 17.17 24.26 19 19 0 0 0 2.13-.12l3-.35-11.19 32.24c-41.24 9.09-65.59 33.18-66.69 34.29a18.23 18.23 0 0 0 -3.46 20.94c-36.63 29.55-47.58 65.24-48.15 67.17a18.24 18.24 0 0 0 8.4 21c-13.79 45.76 9.38 77.44 27.27 89.49a20.61 20.61 0 0 0 2 1.15c15.2 45.64 43.44 78.89 44.94 80.64a18.22 18.22 0 0 0 13.84 6.35 18 18 0 0 0 4.3-.52c1.5 2.09 3 4.09 4.48 6-26.92-9.39-52.6-25.09-76.78-47.09a328.05 328.05 0 0 1 -48.59-56.22 372.92 372.92 0 0 1 -19.94-32.25c16.53-10 32.5-24.39 36.29-38.55 3.3-12.3-1.59-24.07-12.76-30.72-.18-.11-.36-.22-.55-.32a30 30 0 0 0 -14.62-3.72c-17.89 0-34.44 14.9-49.85 33.42-17.4-12.57-34.72-22.8-59.12-29.87-14.73-4.26-26.94-6.42-36.28-6.42-12.21 0-21.15 3.77-26.6 11.2-2.79 3.82-6.92 12-3.19 23.76 4.5 14.18 17.82 20.61 25.78 24.46l2.41 1.16c-10.16 6.43-23.69 17.51-21.6 33.78 1.4 10.93 10.18 22.61 30.6 22.61a62.57 62.57 0 0 0 11.45-1.1 82.74 82.74 0 0 0 19-6.41c2.65 5 8.9 12.47 22.84 13.72 1 .09 2 .13 3 .13 10.55 0 19.53-5.05 26.8-11.39 4.52 7.85 10.08 16.88 16.71 26.63.06.09.11.19.17.29.19.27.39.53.57.8l.76 1.13.25.32a387.08 387.08 0 0 0 57 65.91 305.4 305.4 0 0 0 37.34 29.22c-18.91-9.81-38.75-17-58.27-17-17.33 0-32.5 5.66-45.07 16.82-20.5 18.2-27.39 47-32.92 70.08-.65 2.7-1.28 5.34-1.92 7.88-5.29 21.14-10.54 43.91-13.08 67.23-5.39 49.6 3.31 86.89 26.61 114 18.09 21 43.24 32.17 72.72 32.17 17.2 0 36-3.69 55.8-11 2.84-1.05 6.11-2.34 9.69-3.76 14.11-5.58 33.43-13.23 47.52-13.23 2.93 0 6.89.36 9.09 2.06l2.63 2.05c14.25 11.13 34.09 26.56 55.57 33.22l-4.38 35.59c26.68 10 126.95 41.47 247.51 6.06l-.53-50.39a66.28 66.28 0 0 0 27.89-16.78 70.83 70.83 0 0 0 11.53-15.31l11.9 2.14a18.29 18.29 0 0 0 4.24 1.85c1.35.4 13 4.49 7.07 26.24a18.23 18.23 0 0 0 17.58 23 18 18 0 0 0 3.86-.41l69.23-15c7.93 8.62 21.09 19.3 37.62 19.3 7.87 0 19.61-2.5 30.92-14.44 12.58-13.34 17.19-26.53 13.71-39.21a30.19 30.19 0 0 0 -3.39-7.52z" fill="#fff"/><path d="m1055 972.13-2.24-326.77-166.92-14.46-41.35 335.89c38.19 11.48 117.1 27.79 210.51 5.34z" fill="#2b2728"/><path d="m1136.92 842.47-48.91-200.68" fill="none" stroke="#58595b" stroke-miterlimit="10" stroke-width="11.39"/><path d="m755.89 772.13 122.69-166.17" fill="none" stroke="#58595b" stroke-miterlimit="10" stroke-width="11.39"/><path d="m1025.98 627.09 149.71-53.63 43.75-177.65 12.98-56.61 64.92-103.4-30.84-28.28-99.77 13.2-111.18 42.31-127.61-114.46-64.63-57.87-5.47 147.99-73.95 109.92 12.16 118.1 97.58 128.43z" fill="#fff"/><path d="m718.58 389.72c-45.88 68.28 3.91 101.78 3.91 101.78-1.75-4.22 1.27-24.74 1.27-24.74 6.22 59.68 49.29 109.78 49.29 109.78-2.2-7.3-2.66-43.15-2.66-43.15 4.45 40.48 45.12 76.87 45.12 76.87-4.58-6.06-7-41.6-7-41.6 13.56 32.66 32 51.84 45 62.11 9.15 7.23 15.49 10.05 15.49 10.05 2.1 1 4.18 2 6.25 3l-.4.21a145.51 145.51 0 0 1 30.59 13.3c-36.75-21.3-23.16-9.91.62-5.62 17.43 3.16 28.63 8.2 44.6 6 33.18-4.5 66.1-8 99.52-10.59 36.53-2.88 58.67-10.55 92.2-18.83q10.42-1 20.86-1.92c12.79-8.21 25.7-15.79 39.35-22.84 2.22-1.14 4.5-2 6.77-3a369.39 369.39 0 0 0 19.51-39.09c2.38 8.71-1.12 22.06-5.73 34.21a105.33 105.33 0 0 1 17.52-3c.15-.19.25-.37.41-.55a39.41 39.41 0 0 1 5.89-5.77c-.74.3-1.49.6-2.22.92 15.53-32.55 17.16-72.77 17.16-72.77 10.45 14.61 2.89 56.77 2.89 56.77 47.25-60.68-16.71-163.91-16.71-163.91 18.42 13.7 43.83 64.35 43.83 64.35-5.62-51.89-59.49-104.93-59.49-104.93 80.55-99.36 81-145.81 81-145.81-84.1-43.91-189.78 2.43-189.78 2.43-42.45-55.58-102.46-55.08-102.46-55.08 22.07 7.46 39.27 30 39.27 30-33.69-14.41-61.74-22.87-84.62-27.6-5.42-17.21-30.44-73.34-127.82-81.73 0 0-24.25 70.05-11 113.09-32 10.44-36 21.78-36 21.78l31.84-3.74-24.22 69.79c-42.48 5.93-67.5 31.09-67.5 31.09 7.61-3.53 31 1 31 1-62.21 26-78 79.37-78 79.37a34.44 34.44 0 0 1 24.45-11.63zm447.21-138.11s69.12-34 111.52-11.18c0 0-24.52 59.54-60 81.32-.02 0-20.74-43.52-51.52-70.14zm-296-132.53c53.89 11.11 80.78 56.48 72.08 58.43-20.15 4.51-74.6 36.12-74.6 36.12-20.84-29.11 2.48-94.55 2.48-94.55z" fill="#e73c31"/><path d="m1264 516.31s-10.18 105.32-66.37 145.28c0 0 21.19-42 24.22-62.08 0 0-30 80.53-154.23 89.54 0 0 33.79-9.7 60.84-39.32 0 0-164.71 66-272.43-17l229.11-36.23s110.52-87 113-87 65.86 6.81 65.86 6.81z" fill="#e73c31"/><path d="m1038.53 570.51c-49.41 17.06-107.44 9.57-172.74-22.33a2.77 2.77 0 0 1 2.43-5c69.78 34.11 130.78 39.82 181.45 16.96 78.78-35.55 105.33-129.14 105.62-130.14a2.76 2.76 0 0 1 5.33 1.47c-.26 1-27.55 97.08-108.68 133.68q-6.6 3.02-13.41 5.36z" fill="#fff"/><path d="m1190.26 442.58s-9.41-78-60.72-24.47c0 0 44-36.45 60.22 36.5" fill="#fff"/><path d="m876.88 419.07c31.32 17.8-47.75 31.08-47.75 31.08s-14.29-25.49-16.42-46.72 32.85-2.17 64.17 15.64z" fill="#fff"/><ellipse cx="882.93" cy="358.48" fill="#fff" rx="26.87" ry="15.47" transform="matrix(.45492331 -.89053062 .89053062 .45492331 162.02 981.67)"/><path d="m1050.81 52.55s77.76-3.49 114.55 65.58c0 0-45.65 55-63.31 94.55l-90-51.54s33.81-77.48 38.76-108.59z" fill="#2b2728"/><path d="m1123.91 229.75-27.72-24.18-47.3-19.76a109 109 0 0 1 11.62 12.44 499.09 499.09 0 0 0 -58.77-21.19 182.15 182.15 0 0 0 122.17 52.69z" fill="#2b2728" opacity=".2"/><ellipse cx="1059.64" cy="180.95" fill="#2b2728" rx="19.4" ry="94.26" transform="matrix(.49879031 -.86672269 .86672269 .49879031 374.25 1009.09)"/><path d="m1020.83 140.26s45.3 48.74 92.17 52.74l13.14-22.09s-55.67-16.66-94.64-57.3z" fill="#939292"/><ellipse cx="1073.46" cy="156.16" fill="#fff" rx="19.28" ry="18.03" transform="matrix(.06331308 -.99799371 .99799371 .06331308 849.74 1217.6)"/><ellipse cx="1073.46" cy="156.16" fill="#e6e7e8" rx="15.27" ry="14.28" transform="matrix(.06 -1 1 .06 849.74 1217.6)"/><ellipse cx="1041.13" cy="140.58" fill="#fff" rx="11.88" ry="11.11" transform="matrix(.06331308 -.99799371 .99799371 .06331308 834.99 1170.74)"/><ellipse cx="1041.13" cy="140.58" fill="#e6e7e8" rx="8.55" ry="7.99" transform="matrix(.06331308 -.99799371 .99799371 .06331308 834.99 1170.74)"/><ellipse cx="1102.02" cy="175.44" fill="#fff" rx="11.88" ry="11.11" transform="matrix(.06331308 -.99799371 .99799371 .06331308 857.24 1264.16)"/><ellipse cx="1102.02" cy="175.44" fill="#e6e7e8" rx="9.07" ry="8.48" transform="matrix(.06331308 -.99799371 .99799371 .06331308 857.24 1264.16)"/><path d="m952.69 703.52 39.29-.82-19.94 28.13 23.52-.5-49.53 61.55 11.21-38.36-28.99 2.43z" fill="#fff"/><path d="m938.77 609.09c-92 36.64-174.73 22.36-246-42.45-21.37-19.44-38.48-40.76-51.42-59.49-.34.17-.68.36-1 .51-4.05 1.73-8 3.7-12.09 5.49-2.1 1.26-4.16 2.59-6.24 3.92a372.43 372.43 0 0 0 55.8 65c37.54 34.31 93 68.09 165.95 68.09 31.15 0 65.48-6.17 102.94-21.09z" fill="#e73c31"/><path d="m641.61 507.5c-20-28.85-30-51.63-30.16-52l-19.71 8.5c.69 1.6 11 25.07 31.56 54.9 5.92-4 12.03-7.9 18.31-11.4z"/><path d="m592.17 470.12c-6.44 9-17.89 24.54-30.19 23.4-23.72-2.13 5.89-31.13 14.07-39.86-12.41 8.69-25 17.25-38.5 24-7.21 3.6-14.63 7.3-22.5 8.81-5.7 1.1-19.48 2.25-20.53-5.93s13.29-16.2 19.16-19.53c16.51-9.35 37.62-12.72 55.45-8.51-13.47-3.15-26.86-6.64-40-10.92a190.22 190.22 0 0 1 -24.42-9.51c-6.05-2.95-15.24-7-17.51-14.11-6.38-20.14 37-7.44 43.78-5.48 26.63 7.71 44.13 19.82 65.79 36.38l1.54 1.18c8.75-11.39 35.59-48.2 52.39-39 21.42 12.75-33.86 48.49-49.13 48.69z" fill="#e63d31"/><path d="m1094.28 742.17a787.66 787.66 0 0 0 -34.23-99.32l-19.7 8.55c.2.45 19.8 45.9 33.24 96.51 16.74 63.05 16.74 107 0 123.88-5.89 5.92-14.37 8.79-25.31 8.69a45.09 45.09 0 0 1 .52 6.67c0 4.93.07 9.82.36 14.72 16.5 0 29.76-5 39.65-14.93 23.02-23.16 24.86-71.87 5.47-144.77z" fill="#e73c31"/><path d="m843.02 817.31 301.86 54.33 10.06-30.54-298.17-61.7z" fill="#b6795a"/><path d="m1134.52 871s30.4 8.89 19.53 48.56l80.32-17.38s24.06 37.89 48.05 12.57-3.38-33.19-3.38-33.19l-108.04-52.2s-33.47-19.27-36.48 41.64z" fill="#b6795a"/><path d="m1277.17 883.43 4.69-8.15 5.12 2.73 2.08-4.14-12.28-6.75-2.01 3.59 4.01 3.14-4.71 8.15z" fill="#bcbdc0"/><path d="m1258.93 873.93 4.68-8.17 5.11 2.74 2.07-4.14-12.26-6.74-2.01 3.55 3.98 3.18-4.69 8.15z" fill="#bcbdc0"/><path d="m1242.02 865.29 4.68-8.2 5.14 2.71 2.07-4.11-12.26-6.74-2.04 3.57 4.01 3.16-4.68 8.17z" fill="#bcbdc0"/><path d="m1224.53 857.06 4.72-8.15 5.11 2.73 2.09-4.12-12.28-6.75-2.02 3.56 3.99 3.17-4.69 8.15z" fill="#bcbdc0"/><path d="m1206.68 847.78 4.68-8.18 5.12 2.72 2.09-4.1-12.28-6.78-2.01 3.59 3.98 3.17-4.69 8.14z" fill="#bcbdc0"/><path d="m1188.7 839.53 4.66-8.17 5.17 2.71 2.03-4.1-12.25-6.76-2.02 3.57 3.99 3.14-4.69 8.17z" fill="#bcbdc0"/><path d="m1122.85 834.24-6.14 32.13-3.55-.28 5.16-32.08z" fill="#808284"/><path d="m1123.93 834.42-6.17 32.13-3.54-.29 5.16-32.07z" fill="#a7aaab"/><path d="m1102.8 830.01-6.15 32.11-3.57-.28 5.16-32.05z" fill="#808284"/><path d="m1103.85 830.19-6.14 32.14-3.54-.29 5.16-32.07z" fill="#a7aaab"/><path d="m1083.22 825.95-6.09 33.09-3.57-.31 5.11-33.05z" fill="#808284"/><path d="m1084.27 826.13-6.08 33.12-3.54-.31 5.08-33.02z" fill="#a7aaab"/><path d="m1064.85 822.79-6.09 33.08-3.56-.28 5.13-33.06z" fill="#808284"/><path d="m1065.94 822.99-6.09 33.1-3.57-.31 5.07-33.04z" fill="#a7aaab"/><path d="m1046.95 819.12-6.09 33.11-3.54-.31 5.07-33.05z" fill="#808284"/><path d="m1048.03 819.33-6.11 33.12-3.57-.31 5.13-33.07z" fill="#a7aaab"/><path d="m1027.07 815.1-5.33 34.15-2.48-.51 4.62-34.14z" fill="#808284"/><path d="m1027.8 815.39-5.33 34.15-2.48-.52 4.65-34.13z" fill="#a7aaab"/><path d="m1007.64 811.12-5.34 34.14-2.48-.51 4.63-34.13z" fill="#808284"/><path d="m1008.4 811.41-5.37 34.13-2.47-.5 4.62-34.13z" fill="#a7aaab"/><path d="m990.61 807.67-5.34 34.15-2.48-.52 4.62-34.13z" fill="#808284"/><path d="m991.34 807.96-5.32 34.15-2.5-.52 4.65-34.13z" fill="#a7aaab"/><path d="m973.42 804.53-5.31 34.13-2.48-.5 4.62-34.14z" fill="#808284"/><path d="m974.17 804.8-5.33 34.15-2.48-.54 4.63-34.1z" fill="#a7aaab"/><path d="m953.16 800.58-5.33 34.15-2.48-.52 4.62-34.13z" fill="#808284"/><path d="m953.89 800.87-5.31 34.14-2.48-.54 4.63-34.1z" fill="#a7aaab"/><path d="m909.64 791.66-5.33 34.11-2.48-.52 4.62-34.12z" fill="#808284"/><path d="m910.37 791.9-5.31 34.15-2.47-.51 4.62-34.13z" fill="#a7aaab"/><path d="m897.15 789.72-5.33 34.15-2.48-.51 4.62-34.12z" fill="#808284"/><path d="m897.91 790.01-5.36 34.12-2.48-.51 4.62-34.11z" fill="#a7aaab"/><path d="m884.3 786.75-5.33 34.15-2.49-.54 4.65-34.13z" fill="#808284"/><path d="m885.06 787.01-5.34 34.15-2.48-.51 4.63-34.14z" fill="#a7aaab"/><path d="m872.91 784.52-5.33 34.11-2.51-.51 4.65-34.13z" fill="#808284"/><path d="m873.64 784.77-5.33 34.15-2.47-.52 4.64-34.13z" fill="#a7aaab"/><path d="m931.74 796.03-5.34 34.12-2.48-.52 4.63-34.13z" fill="#808284"/><path d="m932.47 796.29-5.31 34.15-2.48-.52 4.63-34.13z" fill="#a7aaab"/><path d="m569.73 771.75c-4 36.27-.8 73.26 22.31 100.14 28.36 33 71.1 29.68 108.4 16 20.29-7.46 63.2-28.19 83.77-12.22 16.83 13.07 46.47 37.4 71.35 34.49a31.07 31.07 0 0 0 12.83-4.42c15.87-9.75 9.59-22.29-5.8-27.15-8-2.52-13.82-5.86-18-9.66-.17-.15-.35-.28-.52-.44s-.47-.42-.67-.62c-9.91-9-14.65-23.93.45-48.34 4.65-10.53 10.73-23.83 21.71-39 24-42.83 44.57-79.52 65.17-56.55.67.2 1.29.36 2 .63 1.17 1.11 1.82 1.84 1.82 1.84s20.75 13.67 29.85-6.61-38.66-59.53-110.1-34c-32.62 11.64-61.63 16.52-92.19-2-36.69-22.23-107.46-83.69-150.46-45.51-18.34 16.16-23.65 46.02-29.28 68.67-4.89 19.51-10.17 42-12.64 64.75zm282.65-7-12.38 17.41a67.55 67.55 0 0 1 12.38-17.38z" fill="#25a9e0"/><path d="m708.8 779.87c-1.92 1.42 10.55-55.16 41.6-56.31 20-.55 27.74 20.29 47.09 26 18.54 4.75 44.22-14.24 59.3-2.63 31 24.29-47.53 52.94-60.17 60.65" fill="#fff"/><path d="m825.46 860.47c-7.69-24.77 11.87-50.62 14.11-53.48l.95-1.21 22.31-25.34c-1.6-8.35 9.52-18.8 2.49-25.15-12-10.89-23.74 9.64-32.47 15.08-6.12 3.83-12.79 5-20 5.13-10.94.15-21.84-1.87-31.51-7.07-10-5.37-15.84-14.34-24.63-21-10-7.63-19.93-3.85-29.69 2-15.12 9.07-18 26.58-24 41.68-5.94 14.8-15.28 26-28.14 35.32-19.36 14-40.5 19.36-61.26 30.11-2.36 1.21-14.06 6.58-9.16 11.48a58.89 58.89 0 0 0 29.27 16.06c17.48 4 38.54 1.52 62.57-7.31 2.63-1 5.64-2.17 9-3.5 20.44-8.09 48.39-19.17 70.78-14.09a39.23 39.23 0 0 1 15.36 7.12l2.74 2.15c12.89 10.07 32.38 25.27 49.62 29.19a31 31 0 0 0 10.36.76 18.91 18.91 0 0 0 8-2.76 15.89 15.89 0 0 0 3.19-2.45 16.22 16.22 0 0 0 -6.34-3.33c-18.01-5.67-29.29-15.57-33.55-29.39z" fill="#fff"/><path d="m822.12 755.88c5.4.59 9.24 6.08 8.6 12.26l-4.7 43c-.66 6.17-5.61 10.7-11 10.12s-9.24-6.08-8.56-12.25l4.67-43c.67-6.2 5.63-10.73 11-10.15z" fill="#a7aaab"/><path d="m814.83 766.44c.44-4.13 3.56-7.2 6.88-6.82s5.71 4 5.27 8.13l-4.7 43c-.42 4.12-3.54 7.19-6.88 6.81s-5.69-4-5.25-8.13z" fill="#fff"/><path d="m814.65 800a2.64 2.64 0 1 0 2.92-2.31 2.6 2.6 0 0 0 -2.92 2.31z" fill="#a7aaab"/><path d="m815.91 788.38a2.64 2.64 0 1 0 5.26.54 2.64 2.64 0 0 0 -5.26-.54z" fill="#a7aaab"/><path d="m817.25 776.12a2.65 2.65 0 0 0 2.32 2.91 2.63 2.63 0 1 0 -2.32-2.91z" fill="#a7aaab"/><path d="m789.31 754.46c5.16 1.72 7.76 7.9 5.8 13.82l-13.59 41c-1.93 5.89-7.72 9.31-12.91 7.61s-7.76-7.93-5.83-13.82l13.62-41c2-5.91 7.74-9.32 12.91-7.61z" fill="#a7aaab"/><path d="m780 763.24c1.3-3.93 5-6.27 8.16-5.19s4.73 5.11 3.45 9l-13.62 41c-1.28 3.9-5 6.24-8.15 5.22s-4.74-5.14-3.43-9.07z" fill="#fff"/><path d="m772.73 796.06a2.62 2.62 0 0 0 1.68 3.32 2.63 2.63 0 1 0 1.65-5 2.62 2.62 0 0 0 -3.33 1.68z" fill="#a7aaab"/><path d="m776.41 784.9a2.65 2.65 0 1 0 5 1.68 2.65 2.65 0 0 0 -5-1.68z" fill="#a7aaab"/><path d="m780.28 773.23a2.64 2.64 0 0 0 5 1.65 2.64 2.64 0 1 0 -5-1.65z" fill="#a7aaab"/><path d="m860.89 877.72s-44.07-11.37-17.42-56.16 53-111.83 85.26-106.6l-46.6-2.83-52.66 111.77 6.59 50.1z" fill="#25a9e0"/><path d="m779.82 738.64s-59.65-56.55-77 .21c-5.43 17.78-7.12 36.14-11.5 54.11-3.47 14.32-9.93 28-22.28 36.71a95.46 95.46 0 0 1 -15.27 8.33c-10.65 4.84-22.07 7.59-33.29 10.81-7.5 2.15-18.85 6-17.57 15.87 0 0 1.61 12.2 29.44 12.19l35.53-17.95 35-26.13z" fill="#fff"/><path d="m686.14 797.86-25.42-5.64 13.71-65.97 24.43 6.15z" fill="#fff"/><path d="m686.67 795.99-23.64-5.22 13-62.38 22.76 5.71z" fill="#fff"/><path d="m740.66 747.15c5.43.58 9.31 6.1 8.6 12.31l-4.69 43c-.64 6.17-5.6 10.7-11 10.12s-9.24-6.09-8.6-12.26l4.71-43c.67-6.17 5.6-10.7 11-10.14z" fill="#a7aaab"/><path d="m733.39 757.7c.45-4.1 3.57-7.16 6.85-6.81s5.71 4 5.31 8.12l-4.71 43c-.44 4.13-3.5 7.17-6.88 6.83s-5.71-4-5.28-8.16z" fill="#fff"/><path d="m733.21 791.3a2.63 2.63 0 1 0 5.24.56 2.63 2.63 0 0 0 -5.24-.56z" fill="#a7aaab"/><path d="m734.48 779.64a2.63 2.63 0 0 0 5.23.6 2.63 2.63 0 1 0 -5.23-.6z" fill="#a7aaab"/><path d="m735.81 767.41a2.63 2.63 0 1 0 2.89-2.35 2.63 2.63 0 0 0 -2.89 2.35z" fill="#a7aaab"/><path d="m668.54 776.72 469.14 88.7 134.17 19.51" fill="none" opacity=".28" stroke="#fff" stroke-width=".55"/><path d="m669 770.89 468.22 89.53 117.83 15.36" fill="none" opacity=".28" stroke="#fff" stroke-width=".55"/><path d="m669.89 766.08 466.65 88.93 105.48 10.28" fill="none" opacity=".28" stroke="#fff" stroke-width=".55"/><path d="m672.48 761.03 468.53 90.49 80.44 4.13" fill="none" opacity=".28" stroke="#fff" stroke-width=".55"/><path d="m1203.57 846.34-67.53.2-462.74-91.53" fill="none" opacity=".28" stroke="#fff" stroke-width=".55"/><path d="m1188.7 839.53-51.78 2.94-459.9-93.43" fill="none" opacity=".28" stroke="#fff" stroke-width=".55"/><path d="m677.81 779a1.65 1.65 0 0 0 1.78 1.53 1.64 1.64 0 0 0 -.2-3.27 1.65 1.65 0 0 0 -1.58 1.74z" fill="#5a5b5d"/><path d="m679.15 773.17a1.63 1.63 0 0 0 1.71 1.55 1.65 1.65 0 0 0 -.2-3.29 1.63 1.63 0 0 0 -1.51 1.74z" fill="#5a5b5d"/><path d="m680.18 768.49a1.61 1.61 0 0 0 1.74 1.54 1.63 1.63 0 0 0 1.53-1.73 1.67 1.67 0 0 0 -1.73-1.56 1.65 1.65 0 0 0 -1.54 1.75z" fill="#5a5b5d"/><path d="m681.3 762.84a1.65 1.65 0 1 0 1.55-1.74 1.66 1.66 0 0 0 -1.55 1.74z" fill="#5a5b5d"/><path d="m682.45 757.16a1.65 1.65 0 1 0 1.55-1.74 1.65 1.65 0 0 0 -1.55 1.74z" fill="#5a5b5d"/><path d="m683.56 750.82a1.66 1.66 0 0 0 1.75 1.55 1.65 1.65 0 0 0 -.2-3.29 1.67 1.67 0 0 0 -1.55 1.74z" fill="#5a5b5d"/><circle cx="659.21" cy="863.32" fill="#231f20" r="8.58"/><circle cx="683.71" cy="861.43" fill="#231f20" r="8.58"/><circle cx="706.11" cy="854.26" fill="#231f20" r="8.58"/><path d="m613.61 416.81a20.15 20.15 0 1 1 -38.47 12c-3.31-10.63-4.82-45.79 5.8-49.1s29.36 26.48 32.67 37.1z" fill="#f6921e"/><path d="m922.39 361.27c23-48.41 88.6-103 128.65-84.07s39.32 104.39 16.37 152.81-73.6 62.29-113.65 43.31-54.31-63.63-31.37-112.05z" fill="#fff"/><ellipse cx="950.35" cy="392.92" fill="#e73c31" rx="29.18" ry="16.8" transform="matrix(.41865974 -.90814317 .90814317 .41865974 195.6 1091.43)"/><g fill="#231f20"><path d="m1668.5 260.37 149.57-3.14-75.91 107.07 89.55-1.87-188.57 234.28 42.69-146-110.37 9.22z" opacity=".2"/><path d="m260.65 260.37-149.58-3.14 75.92 107.07-89.56-1.87 188.57 234.28-42.69-146 110.37 9.22z" opacity=".2"/><path d="m185.66 86.55c1.66 5.45 1.69 5.45-2.66 8.45-1.27.87-1.36 1.76-1.25 3.2.5 6 .74 12.1 1.14 18.14.46 6.9 1.18 13.79 1.43 20.69.24 6.34-1 12.21-7.08 15.86-3.84 2.31-9.81 2.11-13.25-.61-4.1-3.24-4.48-9.74-.81-14.19 3.82-4.63 9.47-5.81 15-3.13.83.4 1.64.82 2.81 1.41-3.37-11.86-6.64-23.38-10-35.16l-9.84 6.35c-5 3.2-9.9 6.42-14.88 9.58a2.79 2.79 0 0 0 -1.57 3.09c.6 4.55 1 9.13 1.53 13.7.73 6.44 1.44 12.89 2.24 19.33.73 5.95-.16 11.56-4.69 15.73a13.72 13.72 0 0 1 -14.36 2.81c-2.51-.85-4.17-4.91-4-8 .31-6.49 5.43-9.21 10.37-10.28 3-.65 6.22-.52 9.64-.76-2-9.86-4.22-20.26-6.45-31-3 2.29-5.86 4.41-8.68 6.57-6.73 5.16-13.44 10.36-20.19 15.49a1.82 1.82 0 0 0 -.85 2.31c2.36 9.18 4.69 18.37 6.82 27.6 1.6 6.9.7 13.41-4.48 18.69-2.55 2.59-6.13 3.29-9.55 4a26.38 26.38 0 0 1 -5.26.44c-3.47 0-5.94-1.5-6.81-4.92a25 25 0 0 1 -.62-7.87c.39-5.6 5.61-7.6 9.79-8.43a16.4 16.4 0 0 1 10.48 1.23c-1.12-5.37-2.2-10.6-3.29-15.82q-3.18-15.28-6.38-30.58a1.85 1.85 0 0 1 1.23-2.35c11.16-5.45 22.28-11 33.41-16.47q14.4-7.12 28.8-14.25 10.6-5.22 21.2-10.4c.29-.14.59-.25 1.06-.45z" opacity=".2"/><path d="m1854.37 50c1.66 5.43 1.7 5.48-2.66 8.46-1.27.87-1.36 1.77-1.24 3.21.49 6 .73 12.09 1.13 18.13.46 6.9 1.18 13.79 1.44 20.7.24 6.33-1 12.2-7.08 15.86-3.85 2.31-9.82 2.1-13.26-.61-4.1-3.24-4.47-9.75-.8-14.2 3.81-4.63 9.47-5.81 15-3.12.83.4 1.65.82 2.82 1.4l-10-35.15-9.81 6.32c-5 3.19-9.9 6.41-14.88 9.57a2.81 2.81 0 0 0 -1.57 3.09c.61 4.56 1 9.14 1.54 13.7.73 6.45 1.44 12.89 2.23 19.33.73 6-.16 11.57-4.69 15.73a13.73 13.73 0 0 1 -14.35 2.82c-2.51-.85-4.18-4.91-4-8 .3-6.49 5.42-9.2 10.37-10.27 3-.66 6.22-.52 9.63-.76l-6.44-31c-3 2.29-5.87 4.41-8.68 6.57-6.74 5.16-13.44 10.36-20.2 15.49a1.79 1.79 0 0 0 -.84 2.3c2.35 9.18 4.68 18.37 6.81 27.6 1.6 6.9.71 13.42-4.47 18.69-2.55 2.6-6.14 3.29-9.56 4a27.14 27.14 0 0 1 -5.26.43c-3.47 0-5.93-1.5-6.81-4.91a25.07 25.07 0 0 1 -.62-7.87c.39-5.61 5.61-7.6 9.79-8.43a16.39 16.39 0 0 1 10.48 1.22c-1.12-5.37-2.2-10.59-3.29-15.81q-3.18-15.3-6.38-30.58a1.86 1.86 0 0 1 1.24-2.36c11.15-5.45 22.27-11 33.4-16.47q14.4-7.12 28.81-14.25l21.17-10.39c.26-.16.57-.28 1.03-.44z" opacity=".2"/><path d="m1566 321.75c.83 2.71.85 2.74-1.33 4.23a1.44 1.44 0 0 0 -.62 1.6c.25 3 .36 6.05.57 9.07.22 3.45.58 6.9.71 10.35.12 3.17-.5 6.1-3.54 7.93a6.29 6.29 0 0 1 -6.62-.31 5 5 0 0 1 -.41-7.09 5.94 5.94 0 0 1 7.52-1.57l1.4.7c-1.68-5.93-3.32-11.68-5-17.57l-4.92 3.17c-2.48 1.6-5 3.21-7.44 4.79a1.41 1.41 0 0 0 -.79 1.55c.31 2.27.52 4.56.77 6.85.37 3.22.72 6.44 1.12 9.66.37 3-.08 5.78-2.35 7.87a6.84 6.84 0 0 1 -7.17 1.4c-1.26-.42-2.09-2.45-2-4 .15-3.25 2.72-4.6 5.19-5.14a36.22 36.22 0 0 1 4.81-.38l-3.22-15.5c-1.51 1.14-2.93 2.2-4.34 3.28-3.36 2.58-6.72 5.18-10.09 7.75a.9.9 0 0 0 -.43 1.15c1.18 4.59 2.35 9.18 3.41 13.8.8 3.45.35 6.71-2.24 9.35-1.27 1.29-3.06 1.64-4.78 2a13.5 13.5 0 0 1 -2.62.22 3.13 3.13 0 0 1 -3.41-2.46 12.69 12.69 0 0 1 -.31-3.94c.19-2.8 2.81-3.8 4.89-4.21a8.22 8.22 0 0 1 5.24.61c-.55-2.69-1.1-5.3-1.64-7.91q-1.59-7.63-3.19-15.29a.92.92 0 0 1 .62-1.17q8.36-4.1 16.7-8.24l14.4-7.12 10.59-5.2z" opacity=".2"/><path d="m1445.61 934c1.66 5.43 1.69 5.47-2.66 8.46-1.28.87-1.37 1.76-1.25 3.2.5 6 .73 12.1 1.14 18.14.45 6.9 1.17 13.79 1.43 20.69.24 6.34-1 12.21-7.08 15.86-3.84 2.31-9.82 2.11-13.25-.61-4.11-3.24-4.48-9.74-.81-14.19 3.81-4.63 9.47-5.81 15-3.12.82.39 1.64.81 2.81 1.4-3.37-11.86-6.64-23.38-10-35.16l-9.84 6.35c-5 3.2-9.91 6.42-14.89 9.58a2.81 2.81 0 0 0 -1.57 3.09c.61 4.55 1 9.13 1.54 13.7.73 6.44 1.44 12.89 2.23 19.33.74 6-.15 11.56-4.69 15.73a13.7 13.7 0 0 1 -14.35 2.81c-2.51-.85-4.18-4.91-4-8 .3-6.49 5.43-9.21 10.37-10.28 3-.65 6.22-.52 9.63-.76l-6.44-31c-3 2.28-5.87 4.41-8.68 6.56-6.73 5.17-13.44 10.36-20.19 15.49a1.81 1.81 0 0 0 -.85 2.31c2.36 9.18 4.69 18.37 6.82 27.6 1.59 6.9.7 13.41-4.48 18.69-2.55 2.59-6.13 3.29-9.56 4a26.28 26.28 0 0 1 -5.25.44c-3.48.05-5.94-1.5-6.82-4.92a25.28 25.28 0 0 1 -.61-7.86c.38-5.61 5.61-7.61 9.78-8.43a16.31 16.31 0 0 1 10.48 1.22c-1.11-5.37-2.2-10.59-3.29-15.82q-3.18-15.28-6.37-30.58a1.84 1.84 0 0 1 1.23-2.35c11.15-5.45 22.27-11 33.4-16.47q14.42-7.12 28.81-14.25 10.58-5.22 21.18-10.39c.31-.12.61-.23 1.08-.46z" opacity=".2"/><path d="m391.37 300.5c1.29-32 2.54-63.08 3.81-94.74l14.81-2c-.52 5.11-1 10.1-1.55 15.08a4.35 4.35 0 0 0 2.09 4.61c8.87 6 15.93 13.47 19.45 23.81 3.27 9.6 2.11 19-2.37 27.79a77.44 77.44 0 0 1 -8.69 13.45c-3.27 4.07-7.33 7.5-11.29 11.46l-3-2.31c6.46-8.6 11.95-17.49 14.92-27.65s2.76-20-4.12-28.61c-2.65-3.3-6.56-5.58-10.14-8.54-.69 5.34-1.39 10.77-2.08 16.21l-5 39.49c-.5 3.91-.94 7.82-1.48 11.72-2.22 16.43-16.88 29.73-35.67 25.73-11-2.33-20.27-16-16.33-27.19 1.82-5.14 6.09-7.54 10.42-9.69 7.57-3.76 15.44-5.29 23.68-1.72a20.78 20.78 0 0 1 9.64 8.31c.81 1.29 1.58 2.61 2.9 4.79z" opacity=".2"/><path d="m490.69 1021.17c1.49-37.06 2.94-73 4.41-109.6l17.14-2.38c-.61 5.91-1.18 11.69-1.8 17.45a5 5 0 0 0 2.42 5.33c10.26 6.9 18.43 15.58 22.51 27.55 3.77 11.1 2.43 21.92-2.75 32.15a89.69 89.69 0 0 1 -10 15.56c-3.78 4.71-8.48 8.68-13.06 13.26l-3.43-2.67c7.47-10 13.83-20.24 17.26-32s3.19-23.19-4.76-33.11c-3.07-3.81-7.59-6.45-11.74-9.87-.79 6.18-1.6 12.46-2.4 18.75q-2.91 22.85-5.8 45.69c-.58 4.52-1.09 9.05-1.71 13.56-2.6 19.07-19.57 34.42-41.31 29.82-12.75-2.71-23.45-18.54-18.88-31.47 2.1-5.94 7-8.72 12.05-11.2 8.76-4.36 17.86-6.13 27.39-2a24 24 0 0 1 11.15 9.6c.89 1.53 1.79 3.06 3.31 5.58z" opacity=".2"/></g></svg>