<svg viewBox="0 0 1920 1080" xmlns="http://www.w3.org/2000/svg"><circle cx="960.45" cy="543.7" fill="#fff" opacity=".2" r="528.6"/><path d="m1398 543.7a435.55 435.55 0 0 1 -77.54 248.74q-7.9 11.41-16.51 22.3-4.62 5.87-9.45 11.55-9.06 10.71-18.8 20.81a437.72 437.72 0 0 1 -166.94 108.33 431.3 431.3 0 0 1 -68.09 18.43q-17.68 3.3-35.86 5.12-10.57 1.07-21.29 1.62-11.43.6-23 .6a442.12 442.12 0 0 1 -61.01-4.2q-10.72-1.5-21.27-3.51a438.52 438.52 0 0 1 -312.24-240.34q-2.7-5.61-5.23-11.32a432.92 432.92 0 0 1 -28-85.68q-1.47-6.81-2.71-13.69-1.12-6.11-2.06-12.25-1-6.56-1.79-13.17a438.8 438.8 0 0 1 -3.21-53.34q0-3.23 0-6.43.16-12.21 1-24.26a434.11 434.11 0 0 1 6.07-48.35.08.08 0 0 0 0 0s0 0 0 0c37.27-203.96 215.78-358.46 430.38-358.46a437.23 437.23 0 0 1 314.32 133.19q8.1 8.36 15.72 17.13a435.86 435.86 0 0 1 107.51 287.18z" fill="#fbcc34"/><g fill="#231f20"><path d="m340.23 297.83c-34.61 11-50.08-5.2-67.44-34.61 8 44.62-47.67 74.54-88.11 55.78-11-4.69-16.86-12.43-20.92-21.43-47.66 18.77-117.51 7-96.85-25.1 15.85-25.35 67.57-20.28 92.54-17.62-20.15-7.73-42.21-20.41-52.73-40.06-15.72-27.79-7.48-86.2 34.35-74.16 25.1 6 39.43 42.09 46.78 63.51 9.38-78.34 127.66-68.58 101.92 18.64 7.48-26.88 28.78-40.69 55.4-36.51 66.83 9.73 47.67 95.08-4.94 111.56z" opacity=".2"/><path d="m1683.62 167.45c21.1 6.7 30.5-3.2 41.2-21.1-4.9 27.2 29.1 45.4 53.7 34 6.7-2.8 10.3-7.5 12.7-13 29.1 11.4 71.7 4.3 59-15.3-9.7-15.5-41.2-12.4-56.4-10.8 12.3-4.7 25.7-12.4 32.1-24.4 9.6-16.9 4.6-52.6-21-45.2-15.3 3.6-24.1 25.6-28.5 38.7-5.7-47.8-77.8-41.8-62.2 11.4-4.6-16.4-17.5-24.8-33.8-22.3-40.5 5.9-28.9 57.9 3.2 68z" opacity=".2"/><path d="m593 1082.36c-85-80.53-196.64-69.71-196.64-69.71l-85.85-87.86-137 7.59c24.57-10.86 21.25-35.54 21.25-35.54-2 5.55-29.21 30.11-29.21 30.11 25.7-26.94 7.93-48.23 7.93-48.23 1 29.21-13.13 46.41-13.13 46.41l-7.25-55.46c-14.4 28.69.25 54.14.88 55.21l-22.39-30.3c-3.79 23.93 11.07 34.61 20.83 39l-39.82 2.21-35.6-120.3-80.84 17.3-1.92 95.26 36.86 13.35c-1.89-3-3-7.11-2.1-12.57l11.2 15.17c-.31-.54-7.64-13.26-.45-27.61l3.63 27.74s7.07-8.6 6.57-23.21c0 0 8.88 10.63-4 24.11.41-.37 13.59-12.33 14.6-15a17.49 17.49 0 0 1 -11.26 18l79.27 28.64 27.76 50.16 240 22.71 11.61 33.46" opacity=".2"/></g><path d="m1215.86 368.3c7.21 10.82 13.91 22.14 18 34.5 12.32 37.27-1.52 79.8-28 108.77s-63.81 46-101.78 55.95c-65.59 17.22-141.82 13-192.76-31.74-13.88-12.2-25.33-26.92-35.7-42.22-13-19.19-24.7-40.27-26.77-63.36-2.2-24.45 6.59-48.46 16.3-71 12-28 26-55.73 46.93-77.94 32.3-34.36 80.71-52.13 127.54-49.05 43.92 2.89 87 39.93 118.51 68.79a369.6 369.6 0 0 1 57.73 67.3z" fill="#fff"/><path d="m904 796.62-.11 4.26v.28l-.13 5.22-.27 10.9-.69 27.53-1.23 49.81-2 82.37q-10.72-1.5-21.27-3.51l2.25-90.86 1.22-49.13.57-22.77.25-10.18.11-4.45 3.22.08 9.16.23z" fill="#1b75bb"/><path d="m1108.71 955.43a431.3 431.3 0 0 1 -68.09 18.43l-37.49-21.36-22.13-12.63-79.41-45.25-21.06-12-204-116.27-54.47-31 21.47-29.8 47.7 25.63 190.48 102.31 21.07 11.32 74.82 40.19 22.11 11.88z" fill="#8a5d3b"/><path d="m432.17 570.32s1.44-31.92-32.66-20.66c0 0 25 5.2 22.1 19.83z" fill="#294b51"/><path d="m434.47 569.36s21.7-43.48-32.63-48.88c0 0 31.47 22.63 18.47 41.2z" fill="#294b51"/><path d="m458.86 634.94c171.88 0 260.67-208.55 261.6-210.8a6.1 6.1 0 0 0 -11.27-4.68c-1 2.31-98 230.08-283.14 200.65a6.1 6.1 0 1 0 -1.91 12 220.29 220.29 0 0 0 34.72 2.83z" fill="#e63d31"/><path d="m692.34 632.64s19.15-28.48 33.27-49.1q11 7.2 22.25 15.62a108 108 0 0 0 -8.09 15.58l-34.77 83.18-193.8-69.49-74.73-56.2s58.32-44.18 147.08-38.75l2.05 27.69 10.91-26.56a263.12 263.12 0 0 1 45.12 9.27l-6.15 35.64s8.74-17.36 15.31-32.76a313.77 313.77 0 0 1 55.06 24.73z" fill="#294b51"/><path d="m436.47 572.23 43-192.84s142.36 134.99-43 192.84z" fill="#faaf40"/><path d="m404.62 575.65-41.56-115.13s-76.88 94.11 41.56 115.13z" fill="#faaf40"/><path d="m524.58 445.69c16.41 42.62 11 95.6-88.11 126.54z" fill="#e63d31"/><path d="m404.28 574.72-2.61.36c-44.12-8.52-59.93-27.56-62.68-47.73l64.68 45.65z" fill="#e63d31"/><path d="m621.19 898.65c-49.6-74.45-119.52-159.8-166.75-233-5.69 21.69-13.7 46.2-34.33 55-13.15 5.61-28.36 3.13-41.9-1.46-24.64-8.34-48.41-28.36-69.35-2.62-14 17.25-16.38 41.39-32.51 57.33a81.73 81.73 0 0 1 -26 17.31c-8.9 3.71-20.48 2.36-28.61 6 23.32-10.32 37-38.66 30.58-63.34 1 3.82-11.5 15.7-14.06 18.25a92.82 92.82 0 0 1 -19.26 14.7c-11 6.33-24.23 13.25-37.34 12.57-25.19-1.31-36-27.95-36.83-49.8-.7-17.42 4.23-33.83 17.13-46.11 15.19-14.44 38.31-17.9 58.41-19.61 1.44-.12 14.92.4 15.54-.64 6.25-4.62 12.59-9.12 19-13.53q47.88-33.13 98.71-61.71c9-5.08 18.28-10.1 27.9-14a101.6 101.6 0 0 1 20.85-6.12c21.21-3.63 42.94 1.12 63.57 7.23 86.27 25.51 163.44 74.24 239 123.3z" fill="#faaf40"/><path d="m267.36 730.31s-16.57 14.46-27-6.82c.03 0 9.78 12.51 27 6.82z" fill="#bb6728"/><path d="m372.11 636c9.15 0 15.3-20.16 16.44-24.21l-4.24-1.2c-2.39 8.49-7.92 21-12.2 21-1.15 0-5.28-1.42-9.85-19l-4.25 1.1c3.93 15.17 8.39 22.25 14.06 22.31z" fill="#bb6728"/><path d="m332.63 639c9.15 0 15.3-20.17 16.44-24.22l-4.23-1.19c-2.4 8.49-7.93 21-12.2 21-1.15 0-5.28-1.42-9.85-19l-4.25 1.1c3.93 15.16 8.4 22.25 14.06 22.31z" fill="#bb6728"/><circle cx="409.83" cy="688.87" fill="#294b51" r="17.59"/><circle cx="409.83" cy="688.87" fill="#e63d31" r="8.8"/><path d="m303 725.23-71.01-61.4 11.97-11.17 66.61 65.63z" fill="#e63d31"/><path d="m456.78 667.75 10.72-93.41 13.55 5.54-17.78 99.23z" fill="#e63d31"/><path d="m1004.75 979q-10.57 1.07-21.29 1.62l-2.46-40.75-3.4-54.87-3.6-59.26-.32-5.24-1.11-18.12 16.49-1h.55l4.26-.26.09 1.52 1.47 23.92.32 5.22.79 12.94 3.2 52.2 3.41 55.62z" fill="#1b75bb"/><path d="m835.16 565.51c28.2 12.89 62 23.21 102.17 28.19l2.16-17.44c-179.12-22.18-226.58-155-227-156.36l-16.62 5.69c.51 1.5 12.92 37 49 75.61 19.69 21.05 48.99 45.43 90.29 64.31z" fill="#a9deee"/><path d="m699.51 432.74c-10.26 2.83-28.19 7.47-36.74-1.38-16.54-17 23.14-20.38 34.52-21.86-14.54-1.29-29.13-2.79-43.34-6.31-7.57-1.88-15.37-3.82-22.19-7.74-4.94-2.85-16-10.88-11.85-17.92s19.72-4 26.13-2.75c18 3.44 35.9 14.51 46.75 29.34-8.21-11.19-16.17-22.57-23.45-34.4a200.3 200.3 0 0 1 -12.62-23.22c-2.78-6.21-7.26-15.3-4.67-22.31 7.31-19.79 32.25 18.19 36.17 24.12 15.37 23.26 21.23 44 27.54 70.92l.45 1.91c13.42-3.17 55.7-14.37 62.77 3.69 8.42 23.79-54.57 15.72-66.17 6z" fill="#ac1f24"/><path d="m712.82 430.81 27.46 29.43-31.37 17.11-13.08-51.76z" fill="#ac1f24"/><path d="m1091.23 666.59c-15.44-26.89-28.85-59.57-37.52-99.12l17.16-3.76c38.67 176.29 175.32 211.29 176.7 211.59l-4.13 17.08c-1.53-.37-38-9.45-79.81-41.83-22.79-17.66-49.78-44.55-72.4-83.96z" fill="#a9deee"/><path d="m1236 789.37c-1.87 10.48-4.83 28.76 4.78 36.45 18.49 14.9 18.14-24.92 18.56-36.39 2.63 14.36 5.48 28.75 10.3 42.57 2.57 7.37 5.22 15 9.76 21.38 3.29 4.66 12.31 14.9 18.94 10.14s2.13-20 .32-26.27c-5.09-17.62-17.77-34.4-33.54-43.84 11.89 7.15 24 14 36.41 20.17a201 201 0 0 0 24.3 10.42c6.44 2.18 15.91 5.81 22.65 2.58 19-9.11-21.1-30.43-27.37-33.78-24.58-13.15-45.78-17.06-73.17-20.86l-1.94-.27c1.92-13.66 9.16-56.79-9.49-62.16-24.46-6.18-10.6 55.79.18 66.43z" fill="#ac1f24"/><path d="m1236.68 775.94-31.84-24.62-14.14 32.82 52.74 8.24z" fill="#ac1f24"/><path d="m913.47 536.86-79.22 245.02 199.83 55.36 69.88-251.81z" fill="#a9deee"/><path d="m1032.47 623.33-55.7 44.46-7.66-57.17-38.98 45.89-13.27-79.6z" fill="none" stroke="#7ab3c1" stroke-miterlimit="10" stroke-width="3.97"/><path d="m840.94 758.39 201.39 58.19-6.4 26.24-204.29-56.31z" fill="#603813"/><path d="m890.9 547.25-66.23 248.84 39.7 15.24 57.84-252.54z" fill="#754c28"/><path d="m1038.33 599.32-58.51 239.8 68.18 22.72 55.96-251.22z" fill="#754c28"/><path d="m891.33 759.39-4.33 12.31-8 22.58-1.7 4.82-3.21 9.1 8.16 2.52 21.19 6.56 35.55 11 4.17-11 1.78-4.71 8.23-21.72 6.41-16.93zm38.18 49.42-16.8-5.2h-.13l-8.71-2.69-9.41-2.92.56-1.57 6.59-18.69 32.75 7.81-4.74 22.77z" fill="#fbb324"/><path d="m504.15 757.76a79.87 79.87 0 0 0 15.79-1.59c120.66-24.23 197.58-320.27 200.8-332.85a6.1 6.1 0 0 0 -11.82-3c-.77 3-78.2 301.19-191.39 323.92-34.17 6.86-69-13-103.75-59a6.1 6.1 0 1 0 -9.74 7.35c32.69 43.31 66.3 65.17 100.11 65.17z" fill="#e63d31"/><ellipse cx="1057.65" cy="390.66" fill="#e82429" rx="24.16" ry="16.24" transform="matrix(.41310443 -.91068366 .91068366 .41310443 264.92 1192.42)"/><path d="m1273.11 391.8c-4-6-6.65-9.56-6.65-9.56 13.36-12.37 24.72-23.78 34.43-34.27l-43.1-5.58.45-3.48a251 251 0 0 0 -19.87-43.91l-43.51-5.63-58.36-7.56-15.79-2-17.28-2.24q1.29 2.73 2.39 5.67a98.63 98.63 0 0 1 4.88 19.08 139.93 139.93 0 0 1 1.7 21.46c.15 21.61-4.08 44.22-11.72 61.5-18.34 41.53-61.05 62.89-95.4 47.71s-47.32-61.13-29-102.66c7.42-16.79 20.74-34.58 36.23-48.83q1.61-1.49 3.25-2.91l.36-.31a140.84 140.84 0 0 1 13.36-10.28l-35.54-4.61 2-15.13 1.42-11-6.49-.84-20.73-2.68-25.14-3.28.42-3.26-7.86-1-17.83-2.31-7.69 14.9-.08.16-11 21.36c-37.77-.15-62.93 18.36-63.7 18.94 7.2-2.14 27.26 4.86 27.26 4.86-58.4 15.08-79.14 60.36-79.14 60.36a30.85 30.85 0 0 1 23.13-7.17c-49.3 54.59-9.51 90.6-9.51 90.6-1-4 4.27-21.74 4.27-21.74-2.05 53.63 29.73 103.47 29.73 103.47-1-6.75 3.14-38.55 3.14-38.55-1.19 35.86 29.23 72.66 30.16 73.78-3.26-6-.86-37.69-.86-37.69 5.68 22.19 14.56 38.45 22.88 49.81a114.54 114.54 0 0 0 9.07 10.91l.8.84 1.23 1.24h-.06c.85.87 1.71 1.73 2.57 2.58a162.83 162.83 0 0 0 14.27 12.45q1.15.91 2.31 1.77c2.48 1.86 5 3.64 7.52 5.33a189 189 0 0 0 41.27 20.59c.72.26 1.44.52 2.17.76a257.8 257.8 0 0 0 59.53 12.67l2.76.25a343.31 343.31 0 0 0 40.48 1.14c6.54-.19 12.78-.54 18.61-1l1.78-.13c2.77-.24 5.45-.49 8-.76a316.13 316.13 0 0 0 37.8-6 131 131 0 0 1 -40.43 22.38l-1.07.36c-3.63 1.21-6.85 2.12-9.5 2.78-3.13.78-5.46 1.23-6.74 1.45-.72.13-1.1.18-1.1.18l1.23.08c2 .14 4.06.25 6 .33q4.56.2 8.94.21h4.93c94.74-1.44 126.8-60.27 126.8-60.27-5.24 17.42-29.34 51.89-29.34 51.89 50.86-26.2 73.81-107.18 76.87-118.77 4.45 15.9-5.93 47.26-5.93 47.26 49.55-47.72 6.05-147.26 6.05-147.26 14.56 14.47 30.63 62.55 30.63 62.55 1.23-34.79-21.13-73.46-32.66-90.99zm-53.65 52.27-2 10.58c-5-65.73-47.48-40.7-48.65-40 52.25-40.83 50.65 29.42 50.65 29.42zm-139.46 86.23c74.25-21.43 109.76-101 110.1-101.79a2.48 2.48 0 1 1 4.54 2c-.36.82-36.74 82.45-113.23 104.55a141.77 141.77 0 0 1 -27.68 5.08c-41.79 3.45-87.07-11.22-135-43.81a2.47 2.47 0 1 1 2.78-4.09c57.41 39.02 110.75 51.84 158.49 38.06zm-130-230.3c8.17 3.71 10.32 16.56 4.81 28.71s-16.61 19-24.78 15.29-10.32-16.56-4.81-28.71 16.65-19.03 24.78-15.29zm-59.92 61.43c.82-19.08 29.37 2.26 54.84 22s-46.24 21.45-46.24 21.45-9.37-24.43-8.56-43.49zm383.37 156.85c.19-.92.29-1.45.29-1.45a16.27 16.27 0 0 1 .68 1.7z" fill="#e82429"/><path d="m1001.48 247.9s-39.07-222.54-172.18-63.2l7.85 15.89 73.5 37.77 43.12 12.41z" fill="#cd8d2a"/><path d="m962.49 254.84 83.59 37.23 43 6.81 34.82 5.51 109.54-23.16 20.21-4.27c14-24 28.31-48.79 38.18-74.71 7.18-18.81 12-38.26 12.81-58.44.29-7.73-.09-15.64-2.87-22.85s-8.43-13.64-15.85-15.83c-8.8-2.57-18.17 1.14-26.12 5.73-15.18 8.79-43.15 41.19-63.53 30.93-15.3-7.65-11.81-35-9.32-48.49 3.89-21.11 15-54.42-4.6-71.34-7.66-6.63-18.75-8.1-28.62-5.92s-18.73 7.51-26.93 13.42c-27.86 19.86-50.52 46.11-72.17 72.65-9 11-17.92 22.25-26.54 33.73-27.57 36.57-51.91 75.53-65.6 119z" fill="#fbb324"/><path d="m962.49 254.84 83.59 37.23 77.82 12.32 109.54-23.16a1123.31 1123.31 0 0 0 -205.35-145.39c-27.57 36.57-51.91 75.53-65.6 119z" fill="#ac1f24"/><path d="m1072.46 287.77 16.62 11.11 34.82 5.51 109.54-23.16 20.21-4.27c14-24 28.31-48.79 38.18-74.71-35.13-3.41-116.55.9-219.37 85.52z" fill="#503914" opacity=".2"/><path d="m825.07 202.13c-2.43-11.77 6.56-23.75 17.89-27.76s24-1.53 35 3.3c26.49 11.61 45.3 35.26 66.39 55.06 34.78 32.65 80.4 56.7 128.08 55 21.68-.76 42.79-6.73 63.89-11.77a763.92 763.92 0 0 1 99.43-16.93c43.5-4.48 89-4.94 129.2 12.14s74.11 55.42 74.18 99.15c0 29.57-16.06 58.67-41.15 74.33z" fill="#fbb324"/><path d="m1126.22 121.68s39.35 5.35 38-50.58c-.01 0 1.38 35.07-38 50.58z" fill="#cd8d2a"/><path d="m203.34 692.72c2.2-7.26 3.93-14.76 3.77-22.34s-2.39-15.32-7.33-21.07-12.86-9.19-20.29-7.67c-5.93 1.2-11 5.35-14.31 10.4s-5.18 10.96-6.51 16.84a119.67 119.67 0 0 0 -2.82 31.46z" fill="#faaf40"/><ellipse cx="181.43" cy="678.04" fill="#bb6728" rx="7.67" ry="15.95"/><circle cx="950.43" cy="688.87" fill="#7ab3c1" r="8.8"/><circle cx="939.22" cy="728.03" fill="#7ab3c1" r="8.8"/><path d="m1923.83 928.05-1.92-95.26-80.85-17.3-35.69 120.27-39.82-2.21c9.76-4.36 24.62-15 20.83-39l-22.38 30.33c.63-1.07 15.28-26.52.88-55.21l-7.25 55.46s-14.14-17.2-13.13-46.41c0 0-17.77 21.29 7.93 48.23 0 0-27.17-24.56-29.21-30.11 0 0-3.32 24.68 21.25 35.54l-36.36-2 10.52-273.76 19.85.32 13.5.22 6.75.11 3.38.06h1l2-.05c1.32 0 2.62-.11 3.94-.21a64 64 0 0 0 29.71-10.57 65.46 65.46 0 0 0 12-10.38c.86-1 1.71-2 2.53-3.07l1.24-1.57 1.14-1.63c.75-1.1 1.49-2.22 2.2-3.34s1.31-2.33 1.93-3.5a39.84 39.84 0 0 0 1.75-3.6c.53-1.24 1-2.47 1.53-3.71s.87-2.54 1.26-3.82.75-2.57 1-3.87.56-2.61.82-3.93.37-2.62.51-3.93l.21-2 .12-1.15.13-1.68 1-13.46 2.05-26.91 1.45-19.08 2.66-34.75c0-.36.06-.89.07-1.25a38.75 38.75 0 0 0 -27.52-38.8 488.5 488.5 0 0 1 -3.84 104.14c-1.17 8.16-2.39 16.36-4.33 24.37-1.74 7.2-4.21 14.35-8.3 20.59-7.71 11.81-20.72 18.88-34.21 22-12.06 2.76-24.43 2.45-36.69 1.29l.06-1.52c13.71 1.29 27.58 1.52 40.87-2.48 13.92-4.19 25.89-12.92 32.12-26.3 3.17-6.83 4.92-14.24 6.29-21.6 1.56-8.33 2.79-16.71 3.85-25.1a488.56 488.56 0 0 0 2.56-95.81 38.83 38.83 0 0 0 -23.08 1.18q-.06 17.7-.17 35.41-.11 24.67-.23 49.32c0 11.9.06 24.19-3.7 35.63a37.57 37.57 0 0 1 -7.54 13.54 30.78 30.78 0 0 1 -15.87 9c-11 2.65-22.85 2.37-34.05 0l.06-1.56a85.38 85.38 0 0 0 15 1.74c8.1.21 16.89-.33 24.41-3.61 10.67-4.64 15.93-15.17 18.18-26.05 2.56-12.39 1.94-25.3 2-37.88q.17-37.49.35-75a38.75 38.75 0 0 0 -23.74 34.06l-2.36 53.94-1.18 27-.3 7.07-14.6.24-17.11.28 6.71-172.96c0-1.22 0-2.57 0-3.81a49.43 49.43 0 0 0 -5.81-21.51q-7.74 57.27-12.48 114.88-3.51 41.8-5.74 83.71-2 35.54-3.11 71.08-.81 23.64-1.32 47.29-.37 16.59-.63 33.16v2.67c-1 63.46-.75 126.93-.32 190.39l-1.53-.09q-.3-44.68-.35-89.36 0-49.36.64-98.72.3-20.14.76-40.29.51-22.5 1.26-45 .9-26.37 2.16-52.74.45-9.13.94-18.28c3.66-67.13 9.48-134.15 18.52-200.76a49.77 49.77 0 0 0 -28.34-22c-8.3 47.12-9.94 95.06-9.6 142.82.2 26.75.87 53.51 1.47 80.25.39 17.16.74 34.34.92 51.5.06 6.34.12 12.66.16 19q.11 17.23.1 34.45 0 30.59-.44 61.18c-.07 5.89-.17 11.77-.27 17.66q-1.37 79.76-5.42 159.42l-1.5-.08q1.07-21 1.94-41.94 2.8-67.17 3.73-134.35.43-31.32.45-62.63 0-16.87-.11-33.74-.12-18.25-.38-36.51-.24-16.93-.68-33.9c-1.83-74.63-4.84-149.82 8.15-223.54a49.81 49.81 0 0 0 -30.55 1.66 467.66 467.66 0 0 0 0 58.12c1.5 24.05 3.86 47.91 3.75 72.05-.13 33.49-1.4 67-2.56 100.5q-.51 14.64-1 29.28c-.22 7.34-.44 14.66-.64 22q-.63 20.63-1.22 41.25l-2 66.87v1.16l-5.07 172.26-1.51-.09q.86-29.56 1.74-59.14 1.67-56.53 3.32-113 1-34 2-68 .63-21.43 1.26-42.85.55-18.2 1.07-36.36.16-5.89.34-11.79.79-26.64 1.58-53.27c.63-21.52 1.5-43.05 1-64.59s-3.06-42.72-4.05-64.13a459 459 0 0 1 .43-49.63 49.62 49.62 0 0 0 -30.25 47.49l9.19 238.86 1.41 36.37c-11.21.11-22.4.12-33.6.1a29.9 29.9 0 0 1 -.83-5.67l-.09-2.57-.07-4.33-.14-8.67-.15-9.58c-.14-8.35-.27-16.7-.34-25l-.19-17.32-.11-17.32q-.21-34.65.24-69.31c0-1.24 0-2.55-.13-3.8a39 39 0 0 0 -27-33.84c-.06.82-.13 1.63-.19 2.45q-2.38 30-2.51 60.11t2 60.13q1.07 15.06 2.68 30.1c1 9.23 2 18.5 3.54 27.65 2.39 13.93 7.14 29.88 21 36.42 11.51 5.46 24.73 3.22 36.95 5.56l.06 1.5c-14.48-3-30.73.57-43.16-9.07-11.53-8.92-15-24.66-17-38.32-2.85-19.73-4.72-39.63-6-59.52q-1.92-30.48-1.52-61 .35-28.25 2.7-56.4a39.23 39.23 0 0 0 -26 1.9q-.49 30.81 1 61.6 1.62 32.76 5.45 65.37 3.85 32.78 10 65.24 1.54 8.16 3.22 16.32a127.45 127.45 0 0 0 3.57 14.92 28.89 28.89 0 0 0 7.77 12.19 48.76 48.76 0 0 0 11.71 7.63 91.2 91.2 0 0 0 49.32 8.54l.06 1.53c-18.7 2-38.69-1.67-54.91-11.32a37.78 37.78 0 0 1 -10.4-8.68 33.9 33.9 0 0 1 -6-12.59c-1.42-5.23-2.4-10.59-3.47-15.89-1.11-5.54-2.18-11.07-3.21-16.63q-6-32.8-9.76-66-3.78-33.48-5.19-67.19-1.15-27.15-.75-54.34a39 39 0 0 0 -21.58 38.23q2.92 34.56 5.16 69.12l1.14 17.29 1 17.28c.53 8.37 1 16.73 1.45 25.1.19 3.16.36 6.33.53 9.48l.47 8.65.24 4.32.19 2.88.24 3.18a95.19 95.19 0 0 0 6.14 26.06l1.35 3.32c.52 1.13 1.07 2.27 1.62 3.39 1 2.2 2.47 4.54 3.8 6.79.72 1.14 1.55 2.32 2.36 3.46l1.21 1.72c.46.57.94 1.17 1.43 1.74 1 1.17 1.91 2.3 3 3.45s2.33 2.32 3.53 3.44a54.38 54.38 0 0 0 20.11 11.54c2.17.62 4.38 1.15 6.57 1.56a69.44 69.44 0 0 0 6.92.6h.86.4.54 3.25c14 0 28 0 42.08.12l6.61 172.29-41.1-2.28-85.85 87.86s-111.63-10.89-196.63 69.64l185.1.6 11.54-33.46 240-22.71 27.76-50.16 79.29-28.63a17.49 17.49 0 0 1 -11.26-18c1 2.72 14.18 14.68 14.6 15-12.85-13.48-4-24.11-4-24.11-.5 14.61 6.57 23.21 6.57 23.21l3.62-27.74c7.2 14.35-.13 27.07-.44 27.61l11.2-15.15c.86 5.46-.22 9.54-2.1 12.57zm-99.2-430.11a3.73 3.73 0 1 1 -3.72 3.72 3.73 3.73 0 0 1 3.72-3.72zm-51.15 105.29a3.21 3.21 0 1 1 -3.21 3.21 3.21 3.21 0 0 1 3.21-3.21zm-58.21 10.35a2.34 2.34 0 1 1 -2.34 2.34 2.34 2.34 0 0 1 2.34-2.34zm-8.42 180.8a2.58 2.58 0 1 1 -2.58 2.58 2.58 2.58 0 0 1 2.58-2.58zm-34.71 35.17a3.61 3.61 0 1 1 -3.62 3.61 3.61 3.61 0 0 1 3.62-3.61zm-3.62-88a3.62 3.62 0 1 1 3.62 3.61 3.62 3.62 0 0 1 -3.62-3.58zm7.23-282.76a3 3 0 1 1 -3-3 3 3 0 0 1 3 3.03zm-7.23-40.06a4.22 4.22 0 1 1 -4.21 4.22 4.22 4.22 0 0 1 4.21-4.19zm-85.17 155.32a3.54 3.54 0 1 1 3.54 3.54 3.54 3.54 0 0 1 -3.54-3.51zm6.75 57.16a3.21 3.21 0 1 1 3.21-3.21 3.21 3.21 0 0 1 -3.21 3.24zm54.38-171.82a5.28 5.28 0 1 1 5.28-5.28 5.27 5.27 0 0 1 -5.28 5.31z" fill="#231f20" opacity=".2"/></svg>