<svg viewBox="0 0 1920 1080" xmlns="http://www.w3.org/2000/svg"><circle cx="959.8" cy="543.3" fill="#fff" opacity=".2" r="528.6"/><circle cx="959.8" cy="543.3" fill="#f1ecd7" r="437.5"/><path d="m381 349.6 39.1 53.8-53.8 39.1 206.8 32.6 14.7-92.8z" fill="#ffcc07"/><path d="m491.8 414.7 52.6 55.9 28.7 4.5-1.5-17.5-23.3-16.7z" opacity=".1"/><path d="m491.8 414.7 96-32.4-14.7 92.8z" fill="#d7a728"/><path d="m528.04 303.34h94v153.8h-94z" fill="#ffcc07" transform="matrix(.15574489 -.98779731 .98779731 .15574489 109.85 889.02)"/><path d="m593.3 762.2 65.1-416.4-8.4-1.3-65.2 417.1z" fill="#bb9f8a"/><path d="m1665.7 569.1-55.8 36 36 55.9-204.6-44.1 19.7-91.9z" fill="#e63d31"/><path d="m1538.9 589.8-69.2 33.2-28.4-6.1 7.7-15.8 27.8-7.1z" opacity=".1"/><path d="m1538.9 589.8-77.9-64.8-19.7 91.9z" fill="#a41e25"/><path d="m1426.54 450.8h94v153.8h-94z" fill="#e63d31" transform="matrix(.21047176 -.97759994 .97759994 .21047176 647.48 1857.14)"/><path d="m1319 877.4 89.3-411.9 8.4 1.8-89.4 412.6c-2.8-.8-5.5-1.6-8.3-2.5z" fill="#bb9f8a"/><path d="m1186.8 469.8s155.3-7.5 179.5-24.9c0 0-32.1 115-163 141.2z" fill="#988786"/><path d="m703.9 232.2s20.8 125.6 68.8 155.1l42.7-33.9 1-41.7-116.4-92z" fill="#988786"/><path d="m796.1 732c35.4 5.3 76.1 6.1 122.3-1.2l-3.1-20c-205.7 32.3-300.6-99.9-301.5-101.3l-16.6 11.6c1 1.5 26.1 36.9 78.4 68.3 28.4 17 68.6 34.7 120.5 42.6z" fill="#94988d"/><path d="m603.4 627.8c-10.5 6.4-28.9 17.2-41.2 10.1-23.8-13.6 19.2-30 31.3-35.2-16.5 3.2-33.2 6.2-50.1 6.8-9 .3-18.3.7-27.1-1.5-6.4-1.6-21.2-7-18.8-16.1s20.6-10.7 28.1-11.4c21.1-1.9 44.4 4.7 61.2 17.7-12.7-9.8-25.1-19.9-36.9-30.7a257.69 257.69 0 0 1 -21.4-21.7c-5.1-6-12.9-14.7-12.3-23.3 1.8-24.3 41.6 9.9 47.8 15.3 24.4 20.9 37.5 42.1 53.1 69.9l1.1 2c13.9-7.8 57.2-33.6 70.8-15.9 16.9 23.7-55.5 34.8-71.5 27.7z" fill="#e63d31"/><path d="m1144 771.3c-35-7.5-73.4-21.2-114-44.2l10-17.6c181.1 102.8 316.5 12.5 317.9 11.5l11.5 16.7c-1.5 1-37.4 25.4-97.5 36.2-32.8 6-76.7 8.4-127.9-2.6z" fill="#94988d"/><path d="m1361 741.8c7.6 9.7 21 26.3 35 24 27-4.4-7.4-34.8-16.9-44 14.4 8.8 28.9 17.5 44.5 24 8.3 3.5 16.9 7.1 25.9 8.1 6.5.8 22.3.9 23.3-8.4s-15.5-17.3-22.3-20.5c-19-9.2-43.2-11.3-63.5-5 15.3-4.7 30.5-9.8 45.4-15.7a239.17 239.17 0 0 0 27.7-12.8c6.8-3.8 17.3-9.2 19.7-17.4 6.8-23.4-42.4-5.4-50.1-2.6-30.2 11-49.9 26.1-74.3 46.7l-1.7 1.5c-10.2-12.2-41.7-51.7-60.7-39.8-24.2 16.2 39.7 52.1 57.2 51.1z" fill="#e63d31"/><path d="m843.7 660.8-30.7 295.5 238.8 14.6 18.5-301z" fill="#404041"/><circle cx="843.7" cy="927.7" fill="#e63d31" r="6.5"/><circle cx="850.2" cy="941.3" fill="#e63d31" r="6.5"/><circle cx="836.7" cy="939.5" fill="#e63d31" r="6.5"/><path d="m851 932.6h16l-7.9-13.8z" fill="#37b34a"/><circle cx="842.9" cy="888" fill="#e63d31" r="6.5"/><circle cx="854.3" cy="878.1" fill="#e63d31" r="6.5"/><circle cx="856.1" cy="891.7" fill="#e63d31" r="6.5"/><path d="m845.6 879.7-4.1-15.5-11.3 11.3z" fill="#37b34a"/><circle cx="885.5" cy="864" fill="#e63d31" r="6.5"/><circle cx="892.1" cy="877.6" fill="#e63d31" r="6.5"/><circle cx="878.5" cy="875.8" fill="#e63d31" r="6.5"/><path d="m892.9 868.8 15.9.1-7.9-13.9z" fill="#37b34a"/><circle cx="908.8" cy="913.5" fill="#e63d31" r="6.5"/><circle cx="903" cy="899.6" fill="#e63d31" r="6.5"/><circle cx="916.4" cy="902.1" fill="#e63d31" r="6.5"/><path d="m901.7 908.3-15.9-.9 7.2 14.2z" fill="#37b34a"/><path d="m903.7 825.9c9.5 2.1 19 4.3 28.6 6.2 3.5.7 7.1 1.3 10.7 2h.3c21.6.5 43.6 4.7 64.9 8.1l5.3.9c1.3-20.7 3-41.4 3.3-61.5a516.66 516.66 0 0 1 11.1-97.6c1.1-5.1 2.1-10.5 3.4-15.7l-160.5-6.5a73.76 73.76 0 0 1 5.3 27c.1 43.6 2.3 87.5-1.7 131 9.9 1.9 19.8 4 29.3 6.1z" fill="#dce0e3"/><path d="m856.3 696-11.2 147.8 190.8 11.2 15.8-147.8-46-3.2-6.4 108.1-114.4-3.2 11.1-104.9z" fill="#472966" stroke="#d4c1de" stroke-miterlimit="10" stroke-width="3.52"/><g fill="#833b8a"><path d="m1025.8 780 10.9-1.6-10.2 4.1 4.8 10-7.1-8.5-7.9 7.6 5.9-9.3-9.8-5.2 10.8 2.7 1.9-10.9z"/><path d="m1024.2 777.3a4.3 4.3 0 1 1 -4.3 4.3 4.31 4.31 0 0 1 4.3-4.3z"/><path d="m1023.7 806.1 11.1-.5-10.7 3.1 3.8 10.3-6.1-9.1-8.7 6.8 6.8-8.7-9.1-6.2 10.3 3.8 3.1-10.6z"/><path d="m1022 803.2a4.3 4.3 0 1 1 -4.3 4.3 4.31 4.31 0 0 1 4.3-4.3z"/><path d="m937.7 847.3-32.8-2 4.9-34.4 30.8 1.3z"/><path d="m976.9 849.9-35.9-1.7 3.3-36 34.7 1.1z"/></g><path d="m892.3 727.9 49.8 80.8 62.2-77.8z" fill="#8f9e9b"/><path d="m999.3 812.1 36.6 42.9" fill="none" stroke="#d4c1de" stroke-miterlimit="10" stroke-width="3.52"/><path d="m927.5 724.3a21.93 21.93 0 0 0 -10 15.2 22.3 22.3 0 0 0 5.1 17.5c3.4 4 9.4 6.6 13.9 4 2.1-1.2 3.5-3.4 4.7-5.5a33.65 33.65 0 0 0 3-21.4 33.55 33.55 0 0 0 4.2 22.1c2.2 3.7 5.8 7.3 10.1 7.1 5.5-.2 8.9-6.2 10-11.5a39.17 39.17 0 0 0 -4.7-28" fill="#404041"/><path d="m875.2 732.7 10.9-1.6-10.3 4.1 4.9 10-7.1-8.5-7.9 7.6 5.9-9.3-9.8-5.2 10.7 2.7 2-10.8z" fill="#833b8a"/><circle cx="873.6" cy="734.3" fill="#833b8a" r="4.3"/><path d="m928.9 900.9c1.3-14 2.8-28 5.2-41.9a106.06 106.06 0 0 1 3.5-15.8c.6-1.8 1.2-3.5 1.8-5.3.8-11 1.7-22 2.8-33 4.5-46.2 10.8-93.4 19.8-139.4l-118.4-4.8-30.6 295.6 111.3 6.8c2.2-20.7 2.8-41.5 4.6-62.2z" opacity=".14"/><path d="m1099.1 330.7a10.09 10.09 0 0 0 -.7-1.5l-79.4 25.7-38.9-38.6a261.34 261.34 0 0 1 -29-10.7l-2.2-.9c-5.2.8-12 2.5-13.9 2.8-18.9 3.2-38.5 4-56.7-2.7a73.94 73.94 0 0 1 -15.5-8.1c-3.7 1.3-7.4 2.6-11.2 3.7a110 110 0 0 1 -15.5 3.3l-1.7 18.9-74.7 99.7 5.8 111.5 85.6 125.3 122.8 36.3 143.2-43.3 49.6-164.8 14.9-52.6 10.9-15.6c-41.7-11.6-74.3-49-93.4-88.4z" fill="#fff"/><path d="m1231.2 562.1c-2.8-49-50.9-101.4-50.9-101.4 12.4-13.7 22.8-26.4 31.8-38a103 103 0 0 1 -36.4-9.8 73.38 73.38 0 0 1 -7.5 4.8s-2-4.7-5.6-12c-27.4-17.4-49.2-45.7-63.5-75a50.26 50.26 0 0 1 -4.3-13.1c-6.3 1.9-9.8 3.2-9.8 3.2a150.76 150.76 0 0 0 -9.4-12.2c-9.1 7.9-20.3 13.3-32.2 14.4-33.2 3.2-62-4.6-92.2-17.4l-2.2-.9c-5.2.8-12 2.5-13.9 2.8-18.9 3.2-38.5 4-56.7-2.7a73.94 73.94 0 0 1 -15.5-8.1c-3.7 1.3-7.4 2.6-11.2 3.7-13.7 3.9-27.1 5.2-39.8 2-.3.5-.5 1-.8 1.5l.8-.1-26.1 64.4c-40.2 3.6-64.9 26-64.9 26 7.3-3 29 2.5 29 2.5-59.7 21.4-77 70.8-77 70.8a32.19 32.19 0 0 1 23.5-9.7c-46.4 61.9-1.2 95.8-1.2 95.8-1.4-4.1 2.4-23.2 2.4-23.2 3 56.4 41.1 105.5 41.1 105.5-1.7-7-.4-40.7-.4-40.7 2.3 38.2 38.7 74.4 38.7 74.4-4-5.9-4.6-39.4-4.6-39.4 11.2 31.3 27.6 50.2 39.3 60.5l2.3 2h-.1c97.2 83.1 255.1 28.9 255.1 28.9-26.8 26.5-59 34-59 34 117.2-2.6 149.2-76.8 149.2-76.8-3.8 18.7-25.7 57.2-25.7 57.2 50.8-32.4 67-119.5 69-131.8 6.2 16.2-1.6 50.1-1.6 50.1 47.3-54.8-7.9-154.8-7.9-154.8 16.7 13.8 38.2 62.6 38.2 62.6zm-359.8-127.8c15.2-45.3 67.5-100.5 104.9-87.9s45.8 88.2 30.6 133.5-58.6 62.9-96 50.3-54.7-50.6-39.5-95.9zm330.5 168.3a5.16 5.16 0 0 1 -1.1-.2c.1-1 .2-1.5.2-1.5.3.5.6 1.1.9 1.7z" fill="#e63d31"/><path d="m988.4 642.9c-47.2 13.7-101.4 3.9-161.2-29.2a2.57 2.57 0 1 1 2.5-4.5c63.9 35.3 121 43.6 169.7 24.5 75.7-29.6 105.1-116.3 105.4-117.2a2.62 2.62 0 1 1 5 1.6c-.3.9-30.5 89.9-108.5 120.4-4.2 1.7-8.5 3.1-12.9 4.4z" fill="#fff"/><path d="m1137.1 529.9s-5.1-73.7-55.9-25.9c0 0 43.1-32.1 54.8 37.2" fill="#fff"/><path d="m843.8 492.9c28.6 18.2-46.3 26.9-46.3 26.9s-12.2-24.6-13.2-44.7 30.9-.4 59.5 17.8z" fill="#fff"/><ellipse cx="947.49" cy="481.7" fill="#e63d31" rx="25.3" ry="10.8" transform="matrix(.14021003 -.99012178 .99012178 .14021003 337.7 1352.3)"/><ellipse cx="840.47" cy="449.1" fill="#fff" rx="25.3" ry="10.8" transform="matrix(.14021003 -.99012178 .99012178 .14021003 277.97 1218.3)"/><path d="m700 219.7s191.3 59.9 666.3 225.2c0 0-346.1 138.4-666.3-225.2z" fill="#f0dad7"/><ellipse cx="1230.76" cy="352.65" fill="#8e1920" rx="96.6" ry="112.3" transform="matrix(.16521974 -.98625678 .98625678 .16521974 679.64 1508.25)"/><ellipse cx="1197.5" cy="270.95" fill="#c12026" rx="88" ry="102.2" transform="matrix(.26202075 -.96506224 .96506224 .26202075 622.28 1355.64)"/><ellipse cx="945.31" cy="136.65" fill="#d92a36" rx="86.2" ry="100.1" transform="matrix(.26 -.97 .97 .26 565.77 1013.14)"/><ellipse cx="1088.44" cy="175.53" fill="#8e1920" rx="117" ry="136.11" transform="matrix(.17 -.99 .99 .17 735.52 1220.02)"/><ellipse cx="870.78" cy="227.83" fill="#a41e25" rx="86.2" ry="100.1" transform="matrix(.26202075 -.96506224 .96506224 .26202075 422.77 1008.5)"/><ellipse cx="953.07" cy="247.21" fill="#c12026" rx="117" ry="136.11" transform="matrix(.16521974 -.98625678 .98625678 .16521974 551.82 1146.35)"/><path d="m785.8 368.3s171.5 168.1 401 101.5c0 0-190.7 2.5-382.7-142.7 0 0-10.4 22.5-18.3 41.2z" opacity=".14"/><path d="m1162.2 581c161.9 12.9 204.1-136.1 204.1-136.1-416.4 115-666.3-225.2-666.3-225.2s19.9 147.8 100.9 187.7" fill="none" stroke="#696469" stroke-linecap="round" stroke-linejoin="round" stroke-width="14.08"/><path d="m1197.6 508.6a138.74 138.74 0 0 1 -41.7 8.4c-.4 1.6-.7 3.2-1.2 4.8-6.4 21.6-16.5 41.9-27.4 61.5-3.9 7-7.5 14-11.2 21.1v.2c-1.2 9-1.6 7.3-1.2 2.2a2.51 2.51 0 0 1 -.4.7c-3.4 22.2-13 41.1-28.2 54a131.34 131.34 0 0 1 17 23.3 159.12 159.12 0 0 1 45-9.7 193.49 193.49 0 0 1 32.3 1c14.8-32.3 20.8-64.7 22-71.9 6.2 16.2-1.6 50.1-1.6 50.1 38.7-44.8 8.7-119.9-3.4-145.7zm3.2 93.8c.1-1 .2-1.5.2-1.5a9.15 9.15 0 0 1 .9 1.7c-.3-.1-.7-.1-1.1-.2z" fill="#e63d31"/><path d="m1210.9 503.3c-3.5 1.5-6.9 3-10.4 4.3 14.9 18.9 30.6 54.5 30.6 54.5-1.1-20.4-10.1-41.3-20.2-58.8z" fill="#e63d31"/><path d="m800.9 389.4a78.59 78.59 0 0 1 -22.4-20.2c-35.9 5.4-57.6 25.1-57.6 25.1 7.3-3 29 2.5 29 2.5a136.9 136.9 0 0 0 -50.7 31.9c1.8 1 3.5 2 5.2 3.1 1.4 1 2.8 2.1 4.1 3.1.9.2 1.8.3 2.8.5.5 0 1 .1 1.6.1a260.74 260.74 0 0 0 30.6 1c3.5-.1 6.9-.4 10.4-.7.3-.1.7-.2 1.1-.3 5.1-1.4 10.4-2.4 15.5-4 2.6-.8 5.1-1.6 7.6-2.6 5.4-2 3.4-1.1-5.9 2.7 6.7.1 19.1-10.1 24.5-13.7 2.5-1.7 4.9-3.5 7.2-5.3.8-.8 2-1.8 3.5-3.2a102.4 102.4 0 0 0 7.1-8.2 90 90 0 0 1 -13.6-11.8z" fill="#e63d31"/><ellipse cx="1099.79" cy="342.04" fill="#a41e25" rx="88" ry="102.2" transform="matrix(.26202075 -.96506224 .96506224 .26202075 481.56 1313.8)"/><path d="m845.1 843.8 39.8-34.9" fill="none" stroke="#d4c1de" stroke-miterlimit="10" stroke-width="3.52"/><path d="m939.3 847.5 3.4-37.9" fill="none" stroke="#d4c1de" stroke-miterlimit="10" stroke-width="3.52"/><path d="m978.7 850.5 2-39.7" fill="none" stroke="#d4c1de" stroke-miterlimit="10" stroke-width="3.52"/><path d="m902.9 847 5.5-39" fill="none" stroke="#d4c1de" stroke-miterlimit="10" stroke-width="3.52"/><path d="m887.9 761.7-35.7-5.3" fill="none" stroke="#d4c1de" stroke-miterlimit="10" stroke-width="3.52"/><path d="m868.5 775 10.9-1.5-10.2 4.1 4.8 9.9-7.1-8.5-7.9 7.7 5.9-9.3-9.8-5.2 10.7 2.7 2-10.9z" fill="#833b8a"/><circle cx="866.9" cy="776.7" fill="#833b8a" r="4.3"/><path d="m866.4 801.1 11.1-.4-10.7 3 3.8 10.4-6.1-9.2-8.7 6.8 6.8-8.6-9.2-6.2 10.4 3.8 3-10.6z" fill="#833b8a"/><circle cx="864.7" cy="802.6" fill="#833b8a" r="4.3"/><path d="m923.4 828.1 11.1-.4-10.7 3 3.8 10.4-6.1-9.2-8.7 6.8 6.8-8.6-9.2-6.2 10.4 3.8 3-10.6z" fill="#472966"/><circle cx="921.7" cy="829.6" fill="#472966" r="4.3"/><path d="m960.6 829.2 11-.4-10.6 3 3.8 10.4-6.2-9.2-8.7 6.9 6.9-8.7-9.2-6.2 10.4 3.8 3-10.6z" fill="#472966"/><circle cx="958.8" cy="830.7" fill="#472966" r="4.3"/><circle cx="887" cy="829.1" fill="#833b8a" r="6.8"/><circle cx="997.6" cy="836" fill="#833b8a" r="6.8"/><circle cx="901.2" cy="786.8" fill="#8f9e9b" r="5.7"/><circle cx="912.1" cy="793.8" fill="#8f9e9b" r="4.4"/><circle cx="913" cy="782.9" fill="#8f9e9b" r="3.9"/><circle cx="982.1" cy="790.3" fill="#8f9e9b" r="5.7"/><circle cx="969.5" cy="793.4" fill="#8f9e9b" r="4.4"/><circle cx="972.2" cy="782.7" fill="#8f9e9b" r="3.9"/><circle cx="1021.1" cy="907.5" fill="#e63d31" r="6.5"/><circle cx="1029.9" cy="919.8" fill="#e63d31" r="6.5"/><circle cx="1016.2" cy="920.3" fill="#e63d31" r="6.5"/><path d="m1029.2 911 15.7-2.6-10.1-12.3z" fill="#37b34a"/><circle cx="961.1" cy="923.7" fill="#e63d31" r="6.5"/><circle cx="972.5" cy="913.9" fill="#e63d31" r="6.5"/><circle cx="974.4" cy="927.4" fill="#e63d31" r="6.5"/><path d="m963.9 915.4-4.1-15.4-11.3 11.2z" fill="#37b34a"/><circle cx="1004.2" cy="872.9" fill="#e63d31" r="6.5"/><circle cx="1010.7" cy="886.5" fill="#e63d31" r="6.5"/><circle cx="997.1" cy="884.7" fill="#e63d31" r="6.5"/><path d="m1011.5 877.8h16l-8-13.8z" fill="#37b34a"/><circle cx="964.4" cy="880.6" fill="#e63d31" r="6.5"/><circle cx="958.6" cy="866.7" fill="#e63d31" r="6.5"/><circle cx="972.1" cy="869.2" fill="#e63d31" r="6.5"/><path d="m957.3 875.3-15.9-.9 7.2 14.3z" fill="#37b34a"/><path d="m295.1 197.4c-27.3 8.7-39.5-4.1-53.2-27.3 6.3 35.2-37.6 58.8-69.5 44-8.7-3.7-13.3-9.8-16.5-16.9-37.6 14.8-92.7 5.5-76.4-19.8 12.5-20 53.3-16 73-13.9-15.9-6.1-33.3-16.1-41.6-31.6-12.4-21.9-5.9-68 27.1-58.5 19.8 4.7 31.1 33.2 36.9 50.1 7.4-61.8 100.7-54.1 80.4 14.7 5.9-21.2 22.7-32.1 43.7-28.8 52.7 7.7 37.6 75-3.9 88z" fill="#231f20" opacity=".2"/><path d="m1659.7 367.3c21.1 6.7 30.5-3.2 41.2-21.1-4.9 27.2 29.1 45.4 53.7 34 6.7-2.8 10.3-7.5 12.7-13 29.1 11.4 71.7 4.3 59-15.3-9.7-15.5-41.2-12.4-56.4-10.8 12.3-4.7 25.7-12.4 32.1-24.4 9.6-16.9 4.6-52.6-21-45.2-15.3 3.6-24.1 25.6-28.5 38.7-5.7-47.8-77.8-41.8-62.2 11.4-4.6-16.4-17.5-24.8-33.8-22.3-40.5 5.9-28.9 57.9 3.2 68z" fill="#231f20" opacity=".2"/><path d="m1934.2 784.6h-8.6c-1.8 1.9-3.6 3.8-5.3 5.8-23.4 27.8-30.5 68-19.2 102.4-14.6-23.8-56-28-77.8-7.5-9.4 8.8-15.4 20.1-18.6 32.4-11.6-35.4-36.9-66.4-70.9-81.9-53.4-24.3-123.4-6.2-156.4 42.3-31.7 46.5-24.1 116 17.1 153.9-17.5-12.9-44.8-11.6-60.2 4-12.9 13.1-15.7 34.2-8.7 51h408.6z" fill="#231f20" opacity=".2"/><path d="m-14.2 784.6h8.6c1.8 1.9 3.6 3.8 5.3 5.8 23.4 27.8 30.5 68 19.2 102.4 14.6-23.8 56-28 77.8-7.5 9.4 8.8 15.4 20.1 18.6 32.4 11.6-35.4 36.9-66.4 70.9-81.9 53.4-24.3 123.4-6.2 156.4 42.3 31.7 46.5 24.1 116-17.1 153.9 17.5-12.9 44.8-11.6 60.2 4 12.9 13.1 15.7 34.2 8.7 51h-408.6z" fill="#231f20" opacity=".2"/><path d="m813 956.3s102.5 42.3 238.8 14.6z" fill="#404041"/><path d="m923.7 968.2c.1-.4.1-.9.2-1.3.1-1.2.3-2.5.4-3.7l-111.3-6.8s42.9 17.7 110 22.7a50.36 50.36 0 0 1 .7-10.9z" opacity=".14"/></svg>