<svg xmlns="http://www.w3.org/2000/svg" viewBox="0 0 120 120"><defs><style>.cls-1{isolation:isolate;}.cls-2{fill:#231f20;opacity:0.2;mix-blend-mode:multiply;}.cls-3{fill:#ed1c24;}.cls-4{fill:#f5eb18;}.cls-5{fill:#f9ed32;}.cls-6{fill:#fff;}</style></defs><title>Artboard 54 copy</title><g class="cls-1"><g id="Layer_1" data-name="Layer 1"><path d="M17.53,13.89H91.1a7.8,7.8,0,0,1,7.8,7.8V43.45a0,0,0,0,1,0,0H9.73a0,0,0,0,1,0,0V21.69a7.8,7.8,0,0,1,7.8-7.8Z" transform="translate(-4.47 10.89) rotate(-11)"/><ellipse class="cls-2" cx="59.03" cy="111.06" rx="43.62" ry="4.83"/></g><g id="Layer_2" data-name="Layer 2"><rect class="cls-3" x="15.38" y="42.76" width="89.17" height="29.94" transform="translate(-9.91 12.5) rotate(-11)"/><path class="cls-4" d="M21.1,72.4h89.17a0,0,0,0,1,0,0V90.65A11.3,11.3,0,0,1,99,102H32.41a11.3,11.3,0,0,1-11.3-11.3V72.4a0,0,0,0,1,0,0Z" transform="translate(-15.43 14.14) rotate(-11)"/><path class="cls-5" d="M33.68,108.58a11.65,11.65,0,0,1-11.42-9.42L18.71,80.91l88.18-17.14L110.44,82a11.63,11.63,0,0,1-9.2,13.64L35.9,108.36A11.66,11.66,0,0,1,33.68,108.58ZM19.49,81.44,22.91,99a11,11,0,0,0,12.86,8.68L101.11,95a11,11,0,0,0,8.68-12.86l-3.42-17.6Z"/><path class="cls-6" d="M30.95,111.73A10.77,10.77,0,0,1,20.4,103l-14-72.07a10.76,10.76,0,0,1,8.51-12.62L87,4.32A10.76,10.76,0,0,1,99.6,12.83l14,72.08a10.77,10.77,0,0,1-8.51,12.62L33,111.53A10.89,10.89,0,0,1,30.95,111.73ZM89,9.9a5.05,5.05,0,0,0-1,.09L16,24a5,5,0,0,0-3.94,5.84l14,72.08a5,5,0,0,0,5.84,3.94l72.08-14A5,5,0,0,0,107.93,86l-14-72.08A5,5,0,0,0,89,9.9Z"/></g></g></svg>