<?xml version="1.0" encoding="utf-8"?>
<!-- Generator: Adobe Illustrator 22.1.0, SVG Export Plug-In . SVG Version: 6.00 Build 0)  -->
<svg version="1.1" id="Layer_1" xmlns="http://www.w3.org/2000/svg" xmlns:xlink="http://www.w3.org/1999/xlink" x="0px" y="0px"
	 viewBox="0 0 1136.9 1054.9" style="enable-background:new 0 0 1136.9 1054.9;" xml:space="preserve">
<style type="text/css">
	.st0{opacity:0.2;fill:#FFFFFF;enable-background:new    ;}
	.st1{fill:#30BFEF;}
	.st2{fill:#676767;}
	.st3{fill:#CBCBCA;}
	.st4{fill:#E63D31;}
	.st5{fill:#1A1A1A;}
	.st6{opacity:0.1;enable-background:new    ;}
	.st7{fill:none;stroke:#4D4E4E;stroke-width:3.49;stroke-miterlimit:10;}
	.st8{fill:#FAAF3A;}
	.st9{fill:#F05A26;}
	.st10{fill:#F69220;}
	.st11{fill:none;stroke:#F05A26;stroke-width:3.33;stroke-miterlimit:10;}
	.st12{fill:#FFFFFF;}
	.st13{fill:#1C2833;}
	.st14{opacity:0.2;}
	.st15{fill:#231F1F;}
	.st16{fill:#5E5F5E;}
	.st17{fill:none;stroke:#FFFFFF;stroke-width:7.08;stroke-linecap:round;stroke-linejoin:round;}
	.st18{fill:none;stroke:#1C2833;stroke-width:6.06;stroke-miterlimit:10;}
	.st19{fill:#2D2D2D;}
	.st20{fill:#444344;}
	.st21{fill:#615E5F;}
	.st22{fill:#AAAAAA;}
	.st23{fill:#64C9EC;}
	.st24{opacity:0.2;fill:#5E5F5E;enable-background:new    ;}
</style>
<title>largesf</title>
<g>
	<g id="Layer_1_1_">
		<circle class="st0" cx="608.3" cy="528.6" r="528.6"/>
		<circle class="st1" cx="608.3" cy="528.6" r="437.5"/>
		<path class="st2" d="M720,742.2c-26.8-17.8-54.6-42-81.6-74.8l13.2-11.7c120.4,146.3,257.8,114.1,259.2,113.8l4.7,17.9
			c-1.5,0.4-38.1,9.2-90.7-1.2C796.1,780.6,759.2,768.2,720,742.2z"/>
		<path class="st3" d="M865.2,747.2L865.2,747.2c-5.3-1.5-12-1.6-14.7,3.2c-0.8,1.5-1.2,3.3-1.1,5c-0.1,7.1,4.1,13.9,9.6,18.3
			s12.2,6.8,18.9,8.6c-8.6-7.9-23.3-6.9-30.2,2.1c-2.8,3.7-4.3,9.2-1.9,13.5c1.8,3.2,5.4,4.9,8.8,5.7c6.4,1.5,13.2,0.6,19-2.5
			c-9.5-1.7-18.7,5.9-21.2,15.4c-1,3.2-1,6.7,0.2,9.9c3,7.2,12.9,8.6,19.4,5.1c7.2-3.9,11.7-12.3,11.2-20.8
			c-1.2,4.8-1.9,10.3,0.8,14.6c3.3,5.1,10.8,5.9,15.8,2.8c12.3-7.5,14.6-31.8,7.9-44.6C898.8,766.7,882.8,752.1,865.2,747.2z"/>
		<path class="st4" d="M907.6,788.2c3.5,10.7,9.8,29.1,22.1,31.8c23.6,5.1,3.8-31.9-1.5-42.8c9.3,12.2,18.9,24.2,29.9,34.9
			c5.9,5.7,11.9,11.5,19.1,15.3c5.2,2.8,18.1,8.1,21.6,0.5s-7.9-19.7-12.6-24.7c-13.1-14-32.5-23.7-51-25c14,1,28,1.7,41.9,1.6
			c8.9,0,17.7-0.6,26.5-1.8c6.7-1,16.8-2.1,21.2-8.3c12.3-17.5-33.5-18.4-40.6-18.6c-28.1-0.6-48.7,5.8-74.6,15.2l-1.8,0.7
			c-5-13.7-19.8-57.4-38.8-53.5c-24.6,5.8,18,57.1,32.7,62L907.6,788.2z"/>
		<path class="st5" d="M413.7,920.6c97.7,48.3,209.9,58.6,314.8,28.8l20.8-266.8l-277.3-51L413.7,920.6z"/>
		<path class="st2" d="M450.8,678.8c26.4-16.4,53.7-39.1,80-70.5l-13.5-12.4C400,736,262.1,696.3,260.7,695.9l-4.4,17.7
			c1.5,0.5,38.3,11.3,90.6,3.7C375.5,713.1,412.2,702.8,450.8,678.8z"/>
		<path class="st3" d="M278.8,765.4L278.8,765.4c3.8,4.2,9.5,8.1,14.2,5.7c1.5-0.8,2.7-2,3.6-3.4c3.8-5.8,3.8-13.7,1.3-20.5
			s-7-12.5-11.8-17.7c3.3,11.4,16.4,18.8,27,15.3c4.4-1.5,8.6-5.1,8.7-10c0.1-3.6-2-7-4.6-9.6c-4.7-4.9-10.9-7.9-17.6-8.7
			c7.3,6.8,19.1,5.7,26.3-0.6c2.6-2.1,4.3-5,5-8.2c1.2-7.6-6.6-14.3-14-15.1c-8.4-0.8-16.4,3.4-20.5,10.7c3.5-3.3,7.1-7.4,6.9-12.4
			c-0.2-6.1-6.2-10.9-12-11.2c-14.5-0.8-29.2,17.9-30.1,32.2C260,730.3,266.2,751.4,278.8,765.4z"/>
		<path class="st4" d="M264.4,714.8c-3.3,10.5-9.2,28.7-21.4,30.6c-23.4,3.9-4.4-32.1,0.6-42.8c-9.1,11.7-18.4,23.3-29.2,33.3
			c-5.8,5.4-11.7,10.9-18.7,14.3c-5.1,2.5-18,7.1-21.6-0.7s7.5-19.3,12.1-24c12.8-13.4,32-22,50.4-22.3c-13.9,0.3-27.9,0.2-41.8-0.7
			c-8.9-0.5-17.8-1.6-26.5-3.2c-6.8-1.4-16.9-3-21.4-9.5c-12.6-18.2,33.1-16.6,40.2-16.4c28,0.9,48.7,8.4,74.8,19.3l1.8,0.8
			c4.7-13.4,18.6-56.4,37.7-51.5c24.7,7.2-16.8,56.3-31.4,60.3L264.4,714.8z"/>
		<path class="st2" d="M462.4,941.2c46.9,16.5,96.2,25,145.9,24.9c20.6,0,41.2-1.4,61.6-4.3L704,666.5l-195.4-21.8L462.4,941.2z"/>
		<path class="st6" d="M462.4,941.2c18.6,6.6,37.7,11.9,57.1,15.9L582.8,652l-74.2-7.3L462.4,941.2z"/>
		<line class="st7" x1="577.8" y1="808.3" x2="560.8" y2="963.5"/>
		<path class="st8" d="M579,814.8c-2.9-0.2-5.8-0.7-8.5-1.5c-15.1-4.4-27.2-17.6-34.3-37.1c-7.7-21.4-8.3-47.3-1.7-72.9
			c11.8-45.8,44.2-78.6,75.3-76.5c2.9,0.2,5.7,0.7,8.5,1.5c32.5,9.5,49,59.9,36,110.1C642.5,784,610.1,816.9,579,814.8z"/>
		<path class="st9" d="M580,797.7c-1.8-0.1-3.5-0.4-5.3-0.9c-10-2.9-18.3-12.4-23.4-26.7c-6.5-18-7-40.2-1.2-62.3
			c9.7-37.5,35.5-65.6,58.7-64c1.8,0.1,3.5,0.4,5.2,0.9c10.2,3,19,13.5,24,28.8c5.8,17.6,6,39.5,0.7,60.2
			C629,771.2,603.2,799.3,580,797.7z"/>
		<path class="st10" d="M581,780.6c-0.7,0-1.3-0.2-2-0.3c-4.7-1.4-9.4-7.4-12.6-16.2c-5.3-14.7-5.6-33-0.7-51.7
			c8.1-31.5,28.7-52.4,42.1-51.5c0.7,0,1.3,0.2,1.9,0.3c3.7,1.1,9.2,6.4,13,17.9c4.7,14.4,4.8,32.7,0.3,50.1
			C614.9,760.6,594.3,781.5,581,780.6z"/>
		<path class="st11" d="M583.7,768.5c-0.5,0-1.1-0.1-1.6-0.3c-3.7-1.1-7.5-5.9-10-12.9c-4.2-11.7-4.4-26.3-0.6-41.3
			c6.5-25.1,22.9-41.8,33.6-41.1c0.5,0,1,0.1,1.5,0.3c2.9,0.8,7.4,5.1,10.4,14.3c3.8,11.5,3.9,26,0.3,40
			C610.8,752.5,594.3,769.2,583.7,768.5z"/>
		<path class="st6" d="M714.8,719c0,0-146.2,46.2-216.9-8l4-31.2L714.8,719z"/>
		<path class="st12" d="M746.4,358.7c-0.2-0.5-0.3-0.9-0.5-1.4L676,376l-31.6-37.5c-8.4-3.3-16.6-7.2-24.5-11.5l-1.8-1
			c-4.6,0.4-10.5,1.6-12.1,1.8c-16.5,1.8-33.5,1.4-48.9-5.8c-4.7-2.2-9-5-13-8.3c-3.2,1-6.5,1.9-9.9,2.7c-4.5,1.1-9,1.7-13.6,2.1
			l-2.4,17.1l-69.7,86.5l-0.8,102.1l67.5,119.4l104.3,40.5l126-31l51.4-147.4l15.6-47.1l-14.1-13.5
			C762.8,431.9,761,395.8,746.4,358.7z"/>
		<path class="st4" d="M848.6,577.6c0.1-44.9-38.7-95.5-38.7-95.5c3.4-3.5,6.6-7,9.8-10.4c-40.2-27.8-83.2-51.7-124.5-74.2
			c-14.1-7.7-28.3-14.9-42.7-21.6c19.5,24.5,19.8,79.3,6.7,113.4c-15.5,40.4-53.9,53.9-85.6,40.2s-44.7-49.4-29.2-89.8
			c13.1-34.2,49.6-73.4,79.8-76.2c-18.1-7.5-36.5-13.9-55.3-19.3c-19.8-5.6-39.7-11.3-59.7-16.8c-0.4,0.8-0.9,1.6-1.3,2.4
			c-1.9,4.5-5.1,8.4-9,11.4l-2.8,2.6c-3.3,2.6-7,4.6-11,5.9l-11.2,24.8c-34.9,0.9-57.4,19.9-57.4,19.9c6.5-2.3,25,4,25,4
			c-52.7,16-70.2,60.1-70.2,60.1c5.5-5.4,13.1-8.1,20.8-7.5c-43.3,53.8-6,87.3-6,87.3c-1-3.8,3.2-21,3.2-21
			c-0.3,51.6,30,98.7,30,98.7c-1.1-6.5,1.7-37.1,1.7-37.1c0,35,29.6,70.1,29.6,70.1c-3.2-5.6-1.9-36.2-1.9-36.2
			c8,29.2,21.3,47.5,30.8,57.5c3.5,3.8,7.4,7.2,11.6,10.1c1.6,1.1,3.2,2.1,4.8,3.2l0,0l-0.3,0.1c8.4,3.9,16.3,8.7,23.6,14.4
			c-27.8-21.8-17.9-10.8,1-4.7c13.8,4.4,22.4,9.8,35.6,9.6c27.3-0.6,54.2-0.2,81.5,0.8c29.8,1.2,48.4-3.2,76.3-6.9
			c5.7,0.1,11.4,0.3,17.1,0.4c11.1-5.8,22.2-10.9,33.9-15.6c1.9-0.8,3.8-1.3,5.8-1.9c7-10.1,13.5-20.6,19.3-31.5
			c1.1,7.7-2.9,18.7-7.7,28.7c4.8-0.7,9.6-1,14.4-0.9c0.1-0.2,0.2-0.3,0.4-0.4c1.6-1.6,3.4-3.1,5.3-4.3l-1.9,0.6
			c15.5-26.3,20.4-60.5,20.4-60.5c7.1,13.5-2.8,48.8-2.8,48.8c43.7-47.2,1.2-141.7,1.2-141.7C832.6,531.9,848.6,577.6,848.6,577.6z"
			/>
		<path class="st4" d="M822,613c0,0-17.7,89-66.8,117.5c0,0,20.9-33.8,25.2-50.6c0,0-31.5,65.8-132.9,61.2c0,0,28.2-4.9,52.8-27.5
			c0,0-139.3,40.1-219-41.5l188.7-8.2c0,0,97.3-63.3,99.3-63.1S822,613,822,613z"/>
		<path class="st12" d="M517.4,491.5c23.8,18.3-41.5,21.8-41.5,21.8s-9.3-23.2-9.1-41.5S493.6,473.2,517.4,491.5z"/>
		<ellipse transform="matrix(0.1841 -0.9829 0.9829 0.1841 -8.1412 934.418)" class="st4" cx="558.8" cy="472.1" rx="23" ry="9.3"/>
		<polygon class="st6" points="473.8,373.1 832.6,518.4 812.4,485.6 526.8,334.4 484.7,345 		"/>
		
			<ellipse transform="matrix(0.9989 -4.745513e-02 4.745513e-02 0.9989 -39.1148 22.4542)" class="st2" cx="453.3" cy="835" rx="11.7" ry="12.4"/>
		
			<ellipse transform="matrix(0.9989 -4.745513e-02 4.745513e-02 0.9989 -37.3332 22.6345)" class="st2" cx="458" cy="797.6" rx="11.7" ry="12.4"/>
		
			<ellipse transform="matrix(0.9989 -4.745513e-02 4.745513e-02 0.9989 -35.5618 23.0197)" class="st2" cx="467" cy="760.5" rx="11.7" ry="12.4"/>
		
			<ellipse transform="matrix(0.9989 -4.745513e-02 4.745513e-02 0.9989 -37.2002 34.8759)" class="st2" cx="715.9" cy="800.9" rx="11.8" ry="12.4"/>
		
			<ellipse transform="matrix(0.9989 -4.745513e-02 4.745513e-02 0.9989 -39.0638 34.7232)" class="st2" cx="711.8" cy="840.1" rx="11.8" ry="12.4"/>
		<path class="st13" d="M316.3,321.5l18.1-64.1l28.2-93.2l32.2,17.7c0,0-16.1,139.1,18.3,141.9c56.6,4.6,87.5-76.1,115.9-114.3
			c43-57.9,110.6-91.6,179.6-67.3c52,18.3,107.8,50.6,135.7,102.6c22.9,42.6,9.8,75-11.1,113.3c-15.7,28.8-39.1,65.7-7,92.7
			c40.3,34,91.2-19.7,126.7-37.1c16.8-8.3,38.3,16.5,38.3,16.5l-57.7,95"/>
		<g class="st14">
			<path class="st15" d="M575.5,268.5c-2.1-4.7-2.1-12.4-1.7-17.5c0.6-6.4,2.5-12.6,5.5-18.3c8.1-15.6,23.7-22.3,40-21.1
				c13.2,0.9,27.8,3,39.8,9.2c14.4,7.5,25,20.8,28.9,36.6c1.1,4.5,1.8,9.1,1.9,13.8c0.2,7.6-1.8,34.3-9,39.7
				c-5.3,3.7-16.9-0.6-22.8-0.4c-13-0.1-15.8,9.8-18.7,21.4c-1.7,7.9-7.5,28.4-19,20.9c-8.5-5.5-5.8-20.6-4.1-28.5
				c0.1-1.1,0.4-2.4,0.6-3.8c-2.4,9.6-6.5,24.6-17,22.3c-12.5-2.8-0.8-23.5,1.9-30.5c-5.5,8.4-9.9,21.9-22,20.7
				c-17-1.6-7.4-24-0.8-33c3.5-5.3,10-10,7.8-17C585.1,277.3,578.1,274.2,575.5,268.5z"/>
		</g>
		<path class="st12" d="M572.4,256c-2.1-4.7-2.1-12.4-1.7-17.5c0.6-6.4,2.5-12.6,5.5-18.3c8.1-15.6,23.7-22.3,40-21.1
			c13.2,0.9,27.8,3,39.8,9.2c14.4,7.5,25,20.8,28.9,36.6c1.1,4.5,1.8,9.2,1.9,13.8c0.2,7.6-1.8,34.3-9,39.7
			c-5.3,3.7-16.9-0.6-22.8-0.4c-13-0.1-15.8,9.8-18.7,21.4c-1.7,7.9-7.5,28.4-19,20.9c-8.5-5.5-5.8-20.6-4.1-28.5
			c0.2-1.1,0.4-2.4,0.6-3.8c-2.5,9.6-6.5,24.6-17,22.3c-12.6-2.8-0.8-23.5,1.9-30.5c-5.4,8.4-9.9,21.9-22,20.7
			c-17-1.6-7.4-24-0.8-33c3.5-5.3,10-10,7.8-17C582,264.8,575,261.7,572.4,256z"/>
		<path class="st16" d="M634.2,258c15.1-4.9,32,19.8,13.6,26.6c-8.4,3.3-17.8-0.9-21-9.3c-0.2-0.6-0.4-1.2-0.6-1.9
			C623.3,262.7,628.9,259.4,634.2,258L634.2,258z"/>
		<path class="st16" d="M601.6,247.8c12.5-4.1,26.6,16.5,11.3,22.1c-7,2.7-14.8-0.7-17.5-7.7c-0.2-0.5-0.4-1-0.5-1.6
			C592.5,251.7,597.2,249,601.6,247.8L601.6,247.8z"/>
		<g class="st14">
			<path class="st16" d="M656,208.3c14.4,7.5,25,20.8,28.9,36.6c1.1,4.5,1.8,9.2,1.9,13.8c0.2,7.6-1.8,34.3-9,39.7
				c-5.3,3.7-16.9-0.6-22.8-0.4c-10.8-0.1-14.5,6.7-17.2,15.6c0.9-6.6,4.1-12.7,8.9-17.3c6.2-5.9,9.5-6.6,10-16.2
				c0.3-13.8-4-27.9-12.6-38.1c-6.3-6.8-12.6-14.4-13.1-24.8c-0.3-6.1,3.1-10.9,7.3-15.1C644.5,203.4,650.4,205.5,656,208.3z"/>
		</g>
		<path class="st17" d="M720.6,521.1c0,0-61.6,174.6-218.3,86"/>
		<path class="st13" d="M684.7,442.7c-4.6-2.6-120.1-54.5-120.1-54.5s-84.9,125.1,20.2,152.9S684.7,442.7,684.7,442.7z"/>
		<line class="st18" x1="558.9" y1="432.3" x2="470.5" y2="368"/>
		<path class="st12" d="M745.2,529.7c0,0-5.9-63.7-53.9-24.5C691.3,505.1,724.3,479.5,745.2,529.7z"/>
		
			<ellipse transform="matrix(0.8739 -0.486 0.486 0.8739 -370.1023 252.3702)" class="st6" cx="301.5" cy="839.7" rx="24.5" ry="17.2"/>
		
			<ellipse transform="matrix(0.8739 -0.486 0.486 0.8739 -367.7396 249.8919)" class="st19" cx="297.9" cy="833.9" rx="24.8" ry="17.2"/>
		<polygon class="st19" points="319.5,821.9 287.1,747.9 233.8,777.5 276.2,846 		"/>
		
			<ellipse transform="matrix(0.8739 -0.486 0.486 0.8739 -336.0084 220.6325)" class="st20" cx="257.3" cy="758.1" rx="45.8" ry="31.7"/>
		<polygon class="st20" points="297.3,735.9 237.4,599.4 139.2,654.1 217.3,780.4 		"/>
		<polygon class="st21" points="247.9,562.1 202.7,443.9 13.5,542.1 93.9,642 		"/>
		
			<ellipse transform="matrix(0.8876 -0.4607 0.4607 0.8876 -214.9546 105.225)" class="st22" cx="108.1" cy="493" rx="106.6" ry="58.7"/>
		<path class="st23" d="M45,562.9c-3.8-31.6,20.6-68.9,61.6-90.2c35.8-18.6,74.3-19.7,99.3-5.6c-4.1,26.4-31.1,57.5-70.8,78.1
			C102.6,562.1,69.2,567.9,45,562.9z"/>
		
			<ellipse transform="matrix(0.8876 -0.4607 0.4607 0.8876 -258.1093 146.4082)" class="st21" cx="170.9" cy="602" rx="86.7" ry="47.8"/>
		<path class="st24" d="M202.7,443.9c-1.6-3.1-3.7-5.9-6.2-8.3c-9.6,35.1-43.8,103.2-165.8,122.6c24,11.7,64.8,7.5,104.4-13
			C187.4,518,217.6,472.7,202.7,443.9z"/>
		<polygon class="st16" points="620.1,274 602.3,285.7 618.9,294.6 		"/>
		
			<ellipse transform="matrix(0.4093 -0.9124 0.9124 0.4093 -109.972 715.9158)" class="st12" cx="497.9" cy="442.9" rx="19.1" ry="10.5"/>
		<line class="st18" x1="658.9" y1="464.5" x2="770.5" y2="464.5"/>
	</g>
</g>
</svg>
