<svg xmlns="http://www.w3.org/2000/svg" viewBox="0 0 120 120"><defs><style>.cls-1{isolation:isolate;}.cls-2{fill:#e83d32;}.cls-3{fill:#fff;}.cls-4{fill:#2e91cf;}.cls-5{fill:#231f20;opacity:0.2;mix-blend-mode:multiply;}</style></defs><title>Artboard 54 copy 2</title><g class="cls-1"><g id="Layer_1" data-name="Layer 1"><g id="layer4"><path class="cls-2" d="M25.22,104.83c.29,1.15.57,2.34.87,3.53l85.35-16.59c-.59-2.24-1.2-4.48-1.8-6.72L24.45,101.61C24.7,102.69,24.95,103.76,25.22,104.83Z"/><path class="cls-3" d="M24.45,101.61l85.18-16.56c-.6-2.24-1.19-4.48-1.72-6.73L23,94.82C23.47,97.09,23.93,99.36,24.45,101.61Z"/><path class="cls-2" d="M23,94.82l84.89-16.5,0-.13c-.52-2.21-1-4.43-1.42-6.66L21.76,88Q22.37,91.42,23,94.82Z"/><path class="cls-3" d="M21.76,88l84.7-16.46c-.44-2.27-.86-4.55-1.26-6.82L20.55,81.17Q21.16,84.58,21.76,88Z"/><path class="cls-2" d="M20.55,81.17,105.2,64.71c-.38-2.14-.76-4.27-1.15-6.4L19.37,74.77C19.79,76.9,20.17,79,20.55,81.17Z"/><path class="cls-3" d="M19.36,74.71v.06l84.68-16.46c-.34-1.86-.69-3.72-1.07-5.57-.06-.27-.1-.54-.16-.81L18,68.41C18.48,70.5,19,72.6,19.36,74.71Z"/><path class="cls-2" d="M18,68.41l84.83-16.49q-.64-3.21-1.15-6.4L16.43,62.09C17,64.19,17.49,66.3,18,68.41Z"/><path class="cls-3" d="M16.43,62.09l85.23-16.57q-.52-3.22-.92-6.45L14.86,55.77C15.37,57.88,15.9,60,16.43,62.09Z"/><path class="cls-2" d="M14.86,55.77l85.89-16.7q-.41-3.23-.72-6.49L13.41,49.42C13.85,51.55,14.35,53.66,14.86,55.77Z"/><path class="cls-3" d="M12.74,46c.21,1.14.43,2.26.67,3.39L100,32.58q-.28-2.88-.5-5.79c0-.24,0-.48-.07-.72L12.19,43C12.38,44,12.56,45,12.74,46Z"/><path class="cls-2" d="M12.19,43l87.27-17a56.21,56.21,0,0,0-1-6.44l-87.41,17C11.4,38.77,11.8,40.91,12.19,43Z"/><path class="cls-3" d="M10.39,31.15c.15,1.82.39,3.64.68,5.47l87.41-17c-.45-2.12-1-4.23-1.6-6.32L10.33,30.14C10.35,30.48,10.36,30.82,10.39,31.15Z"/><path class="cls-2" d="M10.33,30.14,96.88,13.32c-.61-2.09-1.29-4.17-2-6.24L10.14,23.55C10.24,25.74,10.2,27.94,10.33,30.14Z"/></g><g id="layer5"><path class="cls-4" d="M10.39,31.15c.42,5,1.47,10,2.35,14.88C14.11,53.6,16.23,61,18,68.41l56.36-11-8.69-44.7L10.14,23.55C10.25,26.08,10.18,28.62,10.39,31.15Z"/></g><g id="layer6"><path id="path8827" class="cls-3" d="M22,62.17l1.84-.57.36-2,1.11,1.66,1.91-.22L26,62.67l.82,1.83L25,63.82l-1.4,1.35,0-2Z"/><path id="path8829" class="cls-3" d="M33,60l1.84-.57.36-2,1.11,1.66,1.91-.22L37.1,60.51l.82,1.83-1.82-.67L34.7,63l0-2Z"/><path id="path8831" class="cls-3" d="M43.67,57.95l1.84-.57.36-2L47,57.07l1.91-.22-1.15,1.59.82,1.83-1.82-.67L45.34,61l0-2Z"/><path id="path8833" class="cls-3" d="M54.32,55.88l1.84-.57.36-2L57.63,55l1.91-.22-1.15,1.59.82,1.83-1.82-.67L56,58.88l0-2Z"/><path id="path8835" class="cls-3" d="M65.38,53.73l1.84-.57.36-2,1.11,1.66,1.91-.22-1.15,1.59.82,1.83-1.82-.67L67,56.73l0-2Z"/><path id="path8837" class="cls-3" d="M16,58.9l1.84-.57.36-2L19.34,58l1.91-.22L20.1,59.4l.82,1.83-1.82-.67-1.4,1.35,0-2Z"/><path id="path8841" class="cls-3" d="M14.29,50l1.84-.57.36-2,1.11,1.66,1.91-.22-1.15,1.59.82,1.83-1.82-.67L16,53l0-2Z"/><path id="path8845" class="cls-3" d="M12.55,41l1.84-.57.36-2,1.11,1.66,1.91-.22-1.15,1.59.82,1.83-1.82-.67L14.22,44l0-2Z"/><path id="path8849" class="cls-3" d="M10.81,32.08l1.84-.57.36-2,1.11,1.66L16,31l-1.15,1.59.82,1.83-1.82-.67-1.4,1.35,0-2Z"/><path id="path8853" class="cls-3" d="M26.67,56.83l1.84-.57.36-2L30,56l1.91-.22-1.15,1.59.82,1.83-1.82-.67-1.4,1.35,0-2Z"/><path id="path8855" class="cls-3" d="M20.23,53.23l1.84-.57.36-2,1.11,1.66,1.91-.22L24.3,53.73l.82,1.83-1.82-.67-1.4,1.35,0-2Z"/><path id="path8857" class="cls-3" d="M24.93,47.9l1.84-.57.36-2L28.24,47l1.91-.22L29,48.39l.82,1.83L28,49.55,26.6,50.9l0-2Z"/><path id="path8859" class="cls-3" d="M18.49,44.29l1.84-.57.36-2,1.11,1.66,1.91-.22-1.15,1.59.82,1.83-1.82-.67-1.4,1.35,0-2Z"/><path id="path8861" class="cls-3" d="M23.19,39,25,38.39l.36-2,1.11,1.66,1.91-.22-1.15,1.59.82,1.83-1.82-.67L24.86,42l0-2Z"/><path id="path8863" class="cls-3" d="M16.75,35.35l1.84-.57.36-2,1.11,1.66L22,34.26l-1.15,1.59.82,1.83L19.82,37l-1.4,1.35,0-2Z"/><path id="path8865" class="cls-3" d="M21.46,30l1.84-.57.36-2,1.11,1.66,1.91-.22-1.15,1.59.82,1.83-1.82-.67L23.12,33l0-2Z"/><path id="path8867" class="cls-3" d="M15,26.41l1.84-.57.36-2,1.11,1.66,1.91-.22-1.15,1.59.82,1.83-1.82-.67-1.4,1.35,0-2Z"/><path id="path8869" class="cls-3" d="M37.31,54.77l1.84-.57.36-2,1.11,1.66,1.91-.22-1.15,1.59.82,1.83-1.82-.67L39,57.77l0-2Z"/><path id="path8871" class="cls-3" d="M31.29,51.08l1.84-.57.36-2,1.11,1.66L36.51,50l-1.15,1.59.82,1.83-1.82-.67L33,54.08l0-2Z"/><path id="path8873" class="cls-3" d="M52.58,46.94l1.84-.57.36-2,1.11,1.66,1.91-.22-1.15,1.59.82,1.83-1.82-.67-1.4,1.35,0-2Z"/><path id="path8875" class="cls-3" d="M41.94,49l1.84-.57.36-2,1.11,1.66,1.91-.22L46,49.51l.82,1.83L45,50.66,43.6,52l0-2Z"/><path id="path8877" class="cls-3" d="M59,50.55,60.86,50l.36-2,1.11,1.66,1.91-.22L63.1,51l.82,1.83-1.82-.67-1.4,1.35,0-2Z"/><path id="path8879" class="cls-3" d="M48.38,52.61,50.22,52l.36-2,1.11,1.66,1.91-.22-1.15,1.59.82,1.83-1.82-.67L50,55.62l0-2Z"/><path id="path8881" class="cls-3" d="M26.08,24.26l1.84-.57.36-2,1.11,1.66,1.91-.22-1.15,1.59L31,26.59l-1.82-.67-1.4,1.35,0-2Z"/><path id="path8883" class="cls-3" d="M32.1,27.95l1.84-.57.36-2,1.11,1.66,1.91-.22-1.15,1.59L37,30.28l-1.82-.67L33.76,31l0-2Z"/><path id="path8885" class="cls-3" d="M27.82,33.2l1.84-.57.36-2,1.11,1.66L33,32.1,31.89,33.7l.82,1.83-1.82-.67-1.4,1.35,0-2Z"/><path id="path8887" class="cls-3" d="M33.84,36.89l1.84-.57.36-2L37.15,36l1.91-.22-1.15,1.59.82,1.83-1.82-.67-1.4,1.35,0-2Z"/><path id="path8889" class="cls-3" d="M29.56,42.14l1.84-.57.36-2,1.11,1.66L34.78,41l-1.15,1.59.82,1.83-1.82-.67-1.4,1.35,0-2Z"/><path id="path8891" class="cls-3" d="M35.57,45.83l1.84-.57.36-2L38.89,45l1.91-.22-1.15,1.59.82,1.83-1.82-.67-1.4,1.35,0-2Z"/><path id="path8893" class="cls-3" d="M63.65,44.79l1.84-.57.36-2L67,43.91l1.91-.22-1.15,1.59.82,1.83-1.82-.67-1.4,1.35,0-2Z"/><path id="path8895" class="cls-3" d="M40.2,40.07,42,39.5l.36-2,1.11,1.66L45.42,39l-1.15,1.59.82,1.83-1.82-.67-1.4,1.35,0-2Z"/><path id="path8897" class="cls-3" d="M36.72,22.19l1.84-.57.36-2L40,21.31l1.91-.22L40.8,22.69l.82,1.83-1.82-.67-1.4,1.35,0-2Z"/><path id="path8899" class="cls-3" d="M38.46,31.13l1.84-.57.36-2,1.11,1.66L43.68,30l-1.15,1.59.82,1.83-1.82-.67-1.4,1.35,0-2Z"/><path id="path8901" class="cls-3" d="M57.28,41.61,59.12,41l.36-2,1.11,1.66,1.91-.22L61.36,42.1l.82,1.83-1.82-.67L59,44.61l0-2Z"/><path id="path8903" class="cls-3" d="M46.64,43.68l1.84-.57.36-2L50,42.8l1.91-.22-1.15,1.59L51.53,46l-1.82-.67-1.4,1.35,0-2Z"/><path id="path8905" class="cls-3" d="M43.17,25.8,45,25.23l.36-2,1.11,1.66,1.91-.22-1.15,1.59.82,1.83-1.82-.67-1.4,1.35,0-2Z"/><path id="path8907" class="cls-3" d="M44.9,34.74l1.84-.57.36-2,1.11,1.66,1.91-.22L49,35.23l.82,1.83L48,36.39l-1.4,1.35,0-2Z"/><path id="path8909" class="cls-3" d="M61.91,35.85l1.84-.57.36-2L65.22,35l1.91-.22L66,36.35l.82,1.83L65,37.5l-1.4,1.35,0-2Z"/><path id="path8911" class="cls-3" d="M50.84,38l1.84-.57.36-2,1.11,1.66,1.91-.22L54.91,38.5l.82,1.83-1.82-.67L52.51,41l0-2Z"/><path id="path8913" class="cls-3" d="M47.36,20.12l1.84-.57.36-2,1.11,1.66L52.59,19l-1.15,1.59.82,1.83-1.82-.67L49,23.13l0-2Z"/><path id="path8915" class="cls-3" d="M49.1,29.06l1.84-.57.36-2,1.11,1.66L54.32,28l-1.15,1.59L54,31.39l-1.82-.67-1.4,1.35,0-2Z"/><path id="path8917" class="cls-3" d="M58.43,18l1.84-.57.36-2,1.11,1.66,1.91-.22-1.15,1.59.82,1.83-1.82-.67L60.1,21l0-2Z"/><path id="path8919" class="cls-3" d="M53.81,23.73l1.84-.57.36-2,1.11,1.66L59,22.63l-1.15,1.59.82,1.83-1.82-.67-1.4,1.35,0-2Z"/><path id="path8921" class="cls-3" d="M60.17,26.91,62,26.34l.36-2L63.48,26l1.91-.22-1.15,1.59.82,1.83-1.82-.67-1.4,1.35,0-2Z"/><path id="path8923" class="cls-3" d="M55.55,32.67l1.84-.57.36-2,1.11,1.66,1.91-.22-1.15,1.59L60.44,35l-1.82-.67-1.4,1.35,0-2Z"/></g><ellipse class="cls-5" cx="59.03" cy="111.06" rx="43.62" ry="4.83"/><path class="cls-3" d="M30.94,111.73A10.77,10.77,0,0,1,20.4,103l-14-72.08A10.77,10.77,0,0,1,14.9,18.32L87,4.31A10.76,10.76,0,0,1,99.6,12.83l14,72.07a10.76,10.76,0,0,1-8.51,12.62L33,111.53A10.89,10.89,0,0,1,30.94,111.73ZM89,9.9a5,5,0,0,0-1,.09L16,24a5,5,0,0,0-3.94,5.84l14,72.08a5,5,0,0,0,5.84,3.94l72.08-14A5,5,0,0,0,107.93,86l-14-72.08A5,5,0,0,0,89,9.9Z"/></g></g></svg>